<?xml version="1.0" encoding="utf-8" standalone="no"?>
<!DOCTYPE svg PUBLIC "-//W3C//DTD SVG 1.1//EN"
  "http://www.w3.org/Graphics/SVG/1.1/DTD/svg11.dtd">
<!-- Created with matplotlib (https://matplotlib.org/) -->
<svg height="360pt" version="1.1" viewBox="0 0 864 360" width="864pt" xmlns="http://www.w3.org/2000/svg" xmlns:xlink="http://www.w3.org/1999/xlink">
 <metadata>
  <rdf:RDF xmlns:cc="http://creativecommons.org/ns#" xmlns:dc="http://purl.org/dc/elements/1.1/" xmlns:rdf="http://www.w3.org/1999/02/22-rdf-syntax-ns#">
   <cc:Work>
    <dc:type rdf:resource="http://purl.org/dc/dcmitype/StillImage"/>
    <dc:date>2021-11-18T23:00:09.994639</dc:date>
    <dc:format>image/svg+xml</dc:format>
    <dc:creator>
     <cc:Agent>
      <dc:title>Matplotlib v3.3.2, https://matplotlib.org/</dc:title>
     </cc:Agent>
    </dc:creator>
   </cc:Work>
  </rdf:RDF>
 </metadata>
 <defs>
  <style type="text/css">*{stroke-linecap:butt;stroke-linejoin:round;}</style>
 </defs>
 <g id="figure_1">
  <g id="patch_1">
   <path d="M 0 360 
L 864 360 
L 864 0 
L 0 0 
z
" style="fill:#ffffff;"/>
  </g>
  <g id="axes_1">
   <g id="patch_2">
    <path d="M 48.51899 322.74601 
L 860.99976 322.74601 
L 860.99976 19.94199 
L 48.51899 19.94199 
z
" style="fill:#ffffff;"/>
   </g>
   <g id="patch_3">
    <path clip-path="url(#pb2085918c9)" d="M 85.449934 322.74601 
L 102.627117 322.74601 
L 102.627117 140.711261 
L 85.449934 140.711261 
z
" style="fill:#1f77b4;"/>
   </g>
   <g id="patch_4">
    <path clip-path="url(#pb2085918c9)" d="M 142.707212 322.74601 
L 159.884395 322.74601 
L 159.884395 140.843299 
L 142.707212 140.843299 
z
" style="fill:#1f77b4;"/>
   </g>
   <g id="patch_5">
    <path clip-path="url(#pb2085918c9)" d="M 199.964489 322.74601 
L 217.141673 322.74601 
L 217.141673 141.079883 
L 199.964489 141.079883 
z
" style="fill:#1f77b4;"/>
   </g>
   <g id="patch_6">
    <path clip-path="url(#pb2085918c9)" d="M 257.221767 322.74601 
L 274.39895 322.74601 
L 274.39895 141.576136 
L 257.221767 141.576136 
z
" style="fill:#1f77b4;"/>
   </g>
   <g id="patch_7">
    <path clip-path="url(#pb2085918c9)" d="M 314.479045 322.74601 
L 331.656228 322.74601 
L 331.656228 142.109372 
L 314.479045 142.109372 
z
" style="fill:#1f77b4;"/>
   </g>
   <g id="patch_8">
    <path clip-path="url(#pb2085918c9)" d="M 371.736322 322.74601 
L 388.913506 322.74601 
L 388.913506 142.343115 
L 371.736322 142.343115 
z
" style="fill:#1f77b4;"/>
   </g>
   <g id="patch_9">
    <path clip-path="url(#pb2085918c9)" d="M 428.9936 322.74601 
L 446.170783 322.74601 
L 446.170783 142.354863 
L 428.9936 142.354863 
z
" style="fill:#1f77b4;"/>
   </g>
   <g id="patch_10">
    <path clip-path="url(#pb2085918c9)" d="M 486.250878 322.74601 
L 503.428061 322.74601 
L 503.428061 142.342252 
L 486.250878 142.342252 
z
" style="fill:#1f77b4;"/>
   </g>
   <g id="patch_11">
    <path clip-path="url(#pb2085918c9)" d="M 543.508155 322.74601 
L 560.685339 322.74601 
L 560.685339 141.986343 
L 543.508155 141.986343 
z
" style="fill:#1f77b4;"/>
   </g>
   <g id="patch_12">
    <path clip-path="url(#pb2085918c9)" d="M 600.765433 322.74601 
L 617.942616 322.74601 
L 617.942616 140.568201 
L 600.765433 140.568201 
z
" style="fill:#1f77b4;"/>
   </g>
   <g id="patch_13">
    <path clip-path="url(#pb2085918c9)" d="M 658.022711 322.74601 
L 675.199894 322.74601 
L 675.199894 138.373037 
L 658.022711 138.373037 
z
" style="fill:#1f77b4;"/>
   </g>
   <g id="patch_14">
    <path clip-path="url(#pb2085918c9)" d="M 715.279988 322.74601 
L 732.457172 322.74601 
L 732.457172 134.112502 
L 715.279988 134.112502 
z
" style="fill:#1f77b4;"/>
   </g>
   <g id="patch_15">
    <path clip-path="url(#pb2085918c9)" d="M 772.537266 322.74601 
L 789.714449 322.74601 
L 789.714449 127.434415 
L 772.537266 127.434415 
z
" style="fill:#1f77b4;"/>
   </g>
   <g id="patch_16">
    <path clip-path="url(#pb2085918c9)" d="M 102.627117 322.74601 
L 119.804301 322.74601 
L 119.804301 140.711281 
L 102.627117 140.711281 
z
" style="fill:#ff7f0e;"/>
   </g>
   <g id="patch_17">
    <path clip-path="url(#pb2085918c9)" d="M 159.884395 322.74601 
L 177.061578 322.74601 
L 177.061578 140.843319 
L 159.884395 140.843319 
z
" style="fill:#ff7f0e;"/>
   </g>
   <g id="patch_18">
    <path clip-path="url(#pb2085918c9)" d="M 217.141673 322.74601 
L 234.318856 322.74601 
L 234.318856 141.079903 
L 217.141673 141.079903 
z
" style="fill:#ff7f0e;"/>
   </g>
   <g id="patch_19">
    <path clip-path="url(#pb2085918c9)" d="M 274.39895 322.74601 
L 291.576134 322.74601 
L 291.576134 141.576156 
L 274.39895 141.576156 
z
" style="fill:#ff7f0e;"/>
   </g>
   <g id="patch_20">
    <path clip-path="url(#pb2085918c9)" d="M 331.656228 322.74601 
L 348.833411 322.74601 
L 348.833411 142.109392 
L 331.656228 142.109392 
z
" style="fill:#ff7f0e;"/>
   </g>
   <g id="patch_21">
    <path clip-path="url(#pb2085918c9)" d="M 388.913506 322.74601 
L 406.090689 322.74601 
L 406.090689 142.343136 
L 388.913506 142.343136 
z
" style="fill:#ff7f0e;"/>
   </g>
   <g id="patch_22">
    <path clip-path="url(#pb2085918c9)" d="M 446.170783 322.74601 
L 463.347967 322.74601 
L 463.347967 142.354884 
L 446.170783 142.354884 
z
" style="fill:#ff7f0e;"/>
   </g>
   <g id="patch_23">
    <path clip-path="url(#pb2085918c9)" d="M 503.428061 322.74601 
L 520.605244 322.74601 
L 520.605244 142.342272 
L 503.428061 142.342272 
z
" style="fill:#ff7f0e;"/>
   </g>
   <g id="patch_24">
    <path clip-path="url(#pb2085918c9)" d="M 560.685339 322.74601 
L 577.862522 322.74601 
L 577.862522 141.986364 
L 560.685339 141.986364 
z
" style="fill:#ff7f0e;"/>
   </g>
   <g id="patch_25">
    <path clip-path="url(#pb2085918c9)" d="M 617.942616 322.74601 
L 635.1198 322.74601 
L 635.1198 140.568221 
L 617.942616 140.568221 
z
" style="fill:#ff7f0e;"/>
   </g>
   <g id="patch_26">
    <path clip-path="url(#pb2085918c9)" d="M 675.199894 322.74601 
L 692.377077 322.74601 
L 692.377077 138.373057 
L 675.199894 138.373057 
z
" style="fill:#ff7f0e;"/>
   </g>
   <g id="patch_27">
    <path clip-path="url(#pb2085918c9)" d="M 732.457172 322.74601 
L 749.634355 322.74601 
L 749.634355 134.112521 
L 732.457172 134.112521 
z
" style="fill:#ff7f0e;"/>
   </g>
   <g id="patch_28">
    <path clip-path="url(#pb2085918c9)" d="M 789.714449 322.74601 
L 806.891633 322.74601 
L 806.891633 127.434432 
L 789.714449 127.434432 
z
" style="fill:#ff7f0e;"/>
   </g>
   <g id="patch_29">
    <path clip-path="url(#pb2085918c9)" d="M 119.804301 322.74601 
L 136.981484 322.74601 
L 136.981484 39.019144 
L 119.804301 39.019144 
z
" style="fill:#2ca02c;"/>
   </g>
   <g id="patch_30">
    <path clip-path="url(#pb2085918c9)" d="M 177.061578 322.74601 
L 194.238762 322.74601 
L 194.238762 38.564441 
L 177.061578 38.564441 
z
" style="fill:#2ca02c;"/>
   </g>
   <g id="patch_31">
    <path clip-path="url(#pb2085918c9)" d="M 234.318856 322.74601 
L 251.496039 322.74601 
L 251.496039 37.976875 
L 234.318856 37.976875 
z
" style="fill:#2ca02c;"/>
   </g>
   <g id="patch_32">
    <path clip-path="url(#pb2085918c9)" d="M 291.576134 322.74601 
L 308.753317 322.74601 
L 308.753317 37.098588 
L 291.576134 37.098588 
z
" style="fill:#2ca02c;"/>
   </g>
   <g id="patch_33">
    <path clip-path="url(#pb2085918c9)" d="M 348.833411 322.74601 
L 366.010595 322.74601 
L 366.010595 36.274487 
L 348.833411 36.274487 
z
" style="fill:#2ca02c;"/>
   </g>
   <g id="patch_34">
    <path clip-path="url(#pb2085918c9)" d="M 406.090689 322.74601 
L 423.267872 322.74601 
L 423.267872 35.765818 
L 406.090689 35.765818 
z
" style="fill:#2ca02c;"/>
   </g>
   <g id="patch_35">
    <path clip-path="url(#pb2085918c9)" d="M 463.347967 322.74601 
L 480.52515 322.74601 
L 480.52515 35.661621 
L 463.347967 35.661621 
z
" style="fill:#2ca02c;"/>
   </g>
   <g id="patch_36">
    <path clip-path="url(#pb2085918c9)" d="M 520.605244 322.74601 
L 537.782428 322.74601 
L 537.782428 35.561272 
L 520.605244 35.561272 
z
" style="fill:#2ca02c;"/>
   </g>
   <g id="patch_37">
    <path clip-path="url(#pb2085918c9)" d="M 577.862522 322.74601 
L 595.039705 322.74601 
L 595.039705 35.250449 
L 577.862522 35.250449 
z
" style="fill:#2ca02c;"/>
   </g>
   <g id="patch_38">
    <path clip-path="url(#pb2085918c9)" d="M 635.1198 322.74601 
L 652.296983 322.74601 
L 652.296983 35.02817 
L 635.1198 35.02817 
z
" style="fill:#2ca02c;"/>
   </g>
   <g id="patch_39">
    <path clip-path="url(#pb2085918c9)" d="M 692.377077 322.74601 
L 709.554261 322.74601 
L 709.554261 34.524324 
L 692.377077 34.524324 
z
" style="fill:#2ca02c;"/>
   </g>
   <g id="patch_40">
    <path clip-path="url(#pb2085918c9)" d="M 749.634355 322.74601 
L 766.811538 322.74601 
L 766.811538 34.361229 
L 749.634355 34.361229 
z
" style="fill:#2ca02c;"/>
   </g>
   <g id="patch_41">
    <path clip-path="url(#pb2085918c9)" d="M 806.891633 322.74601 
L 824.068816 322.74601 
L 824.068816 34.379695 
L 806.891633 34.379695 
z
" style="fill:#2ca02c;"/>
   </g>
   <g id="matplotlib.axis_1">
    <g id="xtick_1">
     <g id="line2d_1">
      <path clip-path="url(#pb2085918c9)" d="M 119.804301 322.74601 
L 119.804301 19.94199 
" style="fill:none;stroke:#b0b0b0;stroke-linecap:square;stroke-width:0.8;"/>
     </g>
     <g id="line2d_2">
      <defs>
       <path d="M 0 0 
L 0 3.5 
" id="m479d475bb6" style="stroke:#000000;stroke-width:0.8;"/>
      </defs>
      <g>
       <use style="stroke:#000000;stroke-width:0.8;" x="119.804301" xlink:href="#m479d475bb6" y="322.74601"/>
      </g>
     </g>
     <g id="text_1">
      <!-- 75$\%\cdot x_0$ -->
      <g transform="translate(95.804301 338.864135)scale(0.12 -0.12)">
       <defs>
        <path d="M 8.203125 72.90625 
L 55.078125 72.90625 
L 55.078125 68.703125 
L 28.609375 0 
L 18.3125 0 
L 43.21875 64.59375 
L 8.203125 64.59375 
z
" id="DejaVuSans-55"/>
        <path d="M 10.796875 72.90625 
L 49.515625 72.90625 
L 49.515625 64.59375 
L 19.828125 64.59375 
L 19.828125 46.734375 
Q 21.96875 47.46875 24.109375 47.828125 
Q 26.265625 48.1875 28.421875 48.1875 
Q 40.625 48.1875 47.75 41.5 
Q 54.890625 34.8125 54.890625 23.390625 
Q 54.890625 11.625 47.5625 5.09375 
Q 40.234375 -1.421875 26.90625 -1.421875 
Q 22.3125 -1.421875 17.546875 -0.640625 
Q 12.796875 0.140625 7.71875 1.703125 
L 7.71875 11.625 
Q 12.109375 9.234375 16.796875 8.0625 
Q 21.484375 6.890625 26.703125 6.890625 
Q 35.15625 6.890625 40.078125 11.328125 
Q 45.015625 15.765625 45.015625 23.390625 
Q 45.015625 31 40.078125 35.4375 
Q 35.15625 39.890625 26.703125 39.890625 
Q 22.75 39.890625 18.8125 39.015625 
Q 14.890625 38.140625 10.796875 36.28125 
z
" id="DejaVuSans-53"/>
        <path d="M 72.703125 32.078125 
Q 68.453125 32.078125 66.03125 28.46875 
Q 63.625 24.859375 63.625 18.40625 
Q 63.625 12.0625 66.03125 8.421875 
Q 68.453125 4.78125 72.703125 4.78125 
Q 76.859375 4.78125 79.265625 8.421875 
Q 81.6875 12.0625 81.6875 18.40625 
Q 81.6875 24.8125 79.265625 28.4375 
Q 76.859375 32.078125 72.703125 32.078125 
z
M 72.703125 38.28125 
Q 80.421875 38.28125 84.953125 32.90625 
Q 89.5 27.546875 89.5 18.40625 
Q 89.5 9.28125 84.9375 3.921875 
Q 80.375 -1.421875 72.703125 -1.421875 
Q 64.890625 -1.421875 60.34375 3.921875 
Q 55.8125 9.28125 55.8125 18.40625 
Q 55.8125 27.59375 60.375 32.9375 
Q 64.9375 38.28125 72.703125 38.28125 
z
M 22.3125 68.015625 
Q 18.109375 68.015625 15.6875 64.375 
Q 13.28125 60.75 13.28125 54.390625 
Q 13.28125 47.953125 15.671875 44.328125 
Q 18.0625 40.71875 22.3125 40.71875 
Q 26.5625 40.71875 28.96875 44.328125 
Q 31.390625 47.953125 31.390625 54.390625 
Q 31.390625 60.6875 28.953125 64.34375 
Q 26.515625 68.015625 22.3125 68.015625 
z
M 66.40625 74.21875 
L 74.21875 74.21875 
L 28.609375 -1.421875 
L 20.796875 -1.421875 
z
M 22.3125 74.21875 
Q 30.03125 74.21875 34.609375 68.875 
Q 39.203125 63.53125 39.203125 54.390625 
Q 39.203125 45.171875 34.640625 39.84375 
Q 30.078125 34.515625 22.3125 34.515625 
Q 14.546875 34.515625 10.03125 39.859375 
Q 5.515625 45.21875 5.515625 54.390625 
Q 5.515625 63.484375 10.046875 68.84375 
Q 14.59375 74.21875 22.3125 74.21875 
z
" id="DejaVuSans-37"/>
        <path d="M 10.6875 40.921875 
L 21 40.921875 
L 21 28.515625 
L 10.6875 28.515625 
z
" id="DejaVuSans-8901"/>
        <path d="M 60.015625 54.6875 
L 34.90625 27.875 
L 50.296875 0 
L 39.984375 0 
L 28.421875 21.6875 
L 8.296875 0 
L -2.59375 0 
L 24.3125 28.8125 
L 10.015625 54.6875 
L 20.3125 54.6875 
L 30.8125 34.90625 
L 49.125 54.6875 
z
" id="DejaVuSans-Oblique-120"/>
        <path d="M 31.78125 66.40625 
Q 24.171875 66.40625 20.328125 58.90625 
Q 16.5 51.421875 16.5 36.375 
Q 16.5 21.390625 20.328125 13.890625 
Q 24.171875 6.390625 31.78125 6.390625 
Q 39.453125 6.390625 43.28125 13.890625 
Q 47.125 21.390625 47.125 36.375 
Q 47.125 51.421875 43.28125 58.90625 
Q 39.453125 66.40625 31.78125 66.40625 
z
M 31.78125 74.21875 
Q 44.046875 74.21875 50.515625 64.515625 
Q 56.984375 54.828125 56.984375 36.375 
Q 56.984375 17.96875 50.515625 8.265625 
Q 44.046875 -1.421875 31.78125 -1.421875 
Q 19.53125 -1.421875 13.0625 8.265625 
Q 6.59375 17.96875 6.59375 36.375 
Q 6.59375 54.828125 13.0625 64.515625 
Q 19.53125 74.21875 31.78125 74.21875 
z
" id="DejaVuSans-48"/>
       </defs>
       <use transform="translate(0 0.78125)" xlink:href="#DejaVuSans-55"/>
       <use transform="translate(63.623047 0.78125)" xlink:href="#DejaVuSans-53"/>
       <use transform="translate(127.246094 0.78125)" xlink:href="#DejaVuSans-37"/>
       <use transform="translate(241.748047 0.78125)" xlink:href="#DejaVuSans-8901"/>
       <use transform="translate(293.017578 0.78125)" xlink:href="#DejaVuSans-Oblique-120"/>
       <use transform="translate(352.197266 -15.625)scale(0.7)" xlink:href="#DejaVuSans-48"/>
      </g>
     </g>
    </g>
    <g id="xtick_2">
     <g id="line2d_3">
      <path clip-path="url(#pb2085918c9)" d="M 177.061578 322.74601 
L 177.061578 19.94199 
" style="fill:none;stroke:#b0b0b0;stroke-linecap:square;stroke-width:0.8;"/>
     </g>
     <g id="line2d_4">
      <g>
       <use style="stroke:#000000;stroke-width:0.8;" x="177.061578" xlink:href="#m479d475bb6" y="322.74601"/>
      </g>
     </g>
     <g id="text_2">
      <!-- 80$\%\cdot x_0$ -->
      <g transform="translate(153.061578 338.864135)scale(0.12 -0.12)">
       <defs>
        <path d="M 31.78125 34.625 
Q 24.75 34.625 20.71875 30.859375 
Q 16.703125 27.09375 16.703125 20.515625 
Q 16.703125 13.921875 20.71875 10.15625 
Q 24.75 6.390625 31.78125 6.390625 
Q 38.8125 6.390625 42.859375 10.171875 
Q 46.921875 13.96875 46.921875 20.515625 
Q 46.921875 27.09375 42.890625 30.859375 
Q 38.875 34.625 31.78125 34.625 
z
M 21.921875 38.8125 
Q 15.578125 40.375 12.03125 44.71875 
Q 8.5 49.078125 8.5 55.328125 
Q 8.5 64.0625 14.71875 69.140625 
Q 20.953125 74.21875 31.78125 74.21875 
Q 42.671875 74.21875 48.875 69.140625 
Q 55.078125 64.0625 55.078125 55.328125 
Q 55.078125 49.078125 51.53125 44.71875 
Q 48 40.375 41.703125 38.8125 
Q 48.828125 37.15625 52.796875 32.3125 
Q 56.78125 27.484375 56.78125 20.515625 
Q 56.78125 9.90625 50.3125 4.234375 
Q 43.84375 -1.421875 31.78125 -1.421875 
Q 19.734375 -1.421875 13.25 4.234375 
Q 6.78125 9.90625 6.78125 20.515625 
Q 6.78125 27.484375 10.78125 32.3125 
Q 14.796875 37.15625 21.921875 38.8125 
z
M 18.3125 54.390625 
Q 18.3125 48.734375 21.84375 45.5625 
Q 25.390625 42.390625 31.78125 42.390625 
Q 38.140625 42.390625 41.71875 45.5625 
Q 45.3125 48.734375 45.3125 54.390625 
Q 45.3125 60.0625 41.71875 63.234375 
Q 38.140625 66.40625 31.78125 66.40625 
Q 25.390625 66.40625 21.84375 63.234375 
Q 18.3125 60.0625 18.3125 54.390625 
z
" id="DejaVuSans-56"/>
       </defs>
       <use transform="translate(0 0.78125)" xlink:href="#DejaVuSans-56"/>
       <use transform="translate(63.623047 0.78125)" xlink:href="#DejaVuSans-48"/>
       <use transform="translate(127.246094 0.78125)" xlink:href="#DejaVuSans-37"/>
       <use transform="translate(241.748047 0.78125)" xlink:href="#DejaVuSans-8901"/>
       <use transform="translate(293.017578 0.78125)" xlink:href="#DejaVuSans-Oblique-120"/>
       <use transform="translate(352.197266 -15.625)scale(0.7)" xlink:href="#DejaVuSans-48"/>
      </g>
     </g>
    </g>
    <g id="xtick_3">
     <g id="line2d_5">
      <path clip-path="url(#pb2085918c9)" d="M 234.318856 322.74601 
L 234.318856 19.94199 
" style="fill:none;stroke:#b0b0b0;stroke-linecap:square;stroke-width:0.8;"/>
     </g>
     <g id="line2d_6">
      <g>
       <use style="stroke:#000000;stroke-width:0.8;" x="234.318856" xlink:href="#m479d475bb6" y="322.74601"/>
      </g>
     </g>
     <g id="text_3">
      <!-- 85$\%\cdot x_0$ -->
      <g transform="translate(210.318856 338.864135)scale(0.12 -0.12)">
       <use transform="translate(0 0.78125)" xlink:href="#DejaVuSans-56"/>
       <use transform="translate(63.623047 0.78125)" xlink:href="#DejaVuSans-53"/>
       <use transform="translate(127.246094 0.78125)" xlink:href="#DejaVuSans-37"/>
       <use transform="translate(241.748047 0.78125)" xlink:href="#DejaVuSans-8901"/>
       <use transform="translate(293.017578 0.78125)" xlink:href="#DejaVuSans-Oblique-120"/>
       <use transform="translate(352.197266 -15.625)scale(0.7)" xlink:href="#DejaVuSans-48"/>
      </g>
     </g>
    </g>
    <g id="xtick_4">
     <g id="line2d_7">
      <path clip-path="url(#pb2085918c9)" d="M 291.576134 322.74601 
L 291.576134 19.94199 
" style="fill:none;stroke:#b0b0b0;stroke-linecap:square;stroke-width:0.8;"/>
     </g>
     <g id="line2d_8">
      <g>
       <use style="stroke:#000000;stroke-width:0.8;" x="291.576134" xlink:href="#m479d475bb6" y="322.74601"/>
      </g>
     </g>
     <g id="text_4">
      <!-- 90$\%\cdot x_0$ -->
      <g transform="translate(267.576134 338.864135)scale(0.12 -0.12)">
       <defs>
        <path d="M 10.984375 1.515625 
L 10.984375 10.5 
Q 14.703125 8.734375 18.5 7.8125 
Q 22.3125 6.890625 25.984375 6.890625 
Q 35.75 6.890625 40.890625 13.453125 
Q 46.046875 20.015625 46.78125 33.40625 
Q 43.953125 29.203125 39.59375 26.953125 
Q 35.25 24.703125 29.984375 24.703125 
Q 19.046875 24.703125 12.671875 31.3125 
Q 6.296875 37.9375 6.296875 49.421875 
Q 6.296875 60.640625 12.9375 67.421875 
Q 19.578125 74.21875 30.609375 74.21875 
Q 43.265625 74.21875 49.921875 64.515625 
Q 56.59375 54.828125 56.59375 36.375 
Q 56.59375 19.140625 48.40625 8.859375 
Q 40.234375 -1.421875 26.421875 -1.421875 
Q 22.703125 -1.421875 18.890625 -0.6875 
Q 15.09375 0.046875 10.984375 1.515625 
z
M 30.609375 32.421875 
Q 37.25 32.421875 41.125 36.953125 
Q 45.015625 41.5 45.015625 49.421875 
Q 45.015625 57.28125 41.125 61.84375 
Q 37.25 66.40625 30.609375 66.40625 
Q 23.96875 66.40625 20.09375 61.84375 
Q 16.21875 57.28125 16.21875 49.421875 
Q 16.21875 41.5 20.09375 36.953125 
Q 23.96875 32.421875 30.609375 32.421875 
z
" id="DejaVuSans-57"/>
       </defs>
       <use transform="translate(0 0.78125)" xlink:href="#DejaVuSans-57"/>
       <use transform="translate(63.623047 0.78125)" xlink:href="#DejaVuSans-48"/>
       <use transform="translate(127.246094 0.78125)" xlink:href="#DejaVuSans-37"/>
       <use transform="translate(241.748047 0.78125)" xlink:href="#DejaVuSans-8901"/>
       <use transform="translate(293.017578 0.78125)" xlink:href="#DejaVuSans-Oblique-120"/>
       <use transform="translate(352.197266 -15.625)scale(0.7)" xlink:href="#DejaVuSans-48"/>
      </g>
     </g>
    </g>
    <g id="xtick_5">
     <g id="line2d_9">
      <path clip-path="url(#pb2085918c9)" d="M 348.833411 322.74601 
L 348.833411 19.94199 
" style="fill:none;stroke:#b0b0b0;stroke-linecap:square;stroke-width:0.8;"/>
     </g>
     <g id="line2d_10">
      <g>
       <use style="stroke:#000000;stroke-width:0.8;" x="348.833411" xlink:href="#m479d475bb6" y="322.74601"/>
      </g>
     </g>
     <g id="text_5">
      <!-- 95$\%\cdot x_0$ -->
      <g transform="translate(324.833411 338.864135)scale(0.12 -0.12)">
       <use transform="translate(0 0.78125)" xlink:href="#DejaVuSans-57"/>
       <use transform="translate(63.623047 0.78125)" xlink:href="#DejaVuSans-53"/>
       <use transform="translate(127.246094 0.78125)" xlink:href="#DejaVuSans-37"/>
       <use transform="translate(241.748047 0.78125)" xlink:href="#DejaVuSans-8901"/>
       <use transform="translate(293.017578 0.78125)" xlink:href="#DejaVuSans-Oblique-120"/>
       <use transform="translate(352.197266 -15.625)scale(0.7)" xlink:href="#DejaVuSans-48"/>
      </g>
     </g>
    </g>
    <g id="xtick_6">
     <g id="line2d_11">
      <path clip-path="url(#pb2085918c9)" d="M 406.090689 322.74601 
L 406.090689 19.94199 
" style="fill:none;stroke:#b0b0b0;stroke-linecap:square;stroke-width:0.8;"/>
     </g>
     <g id="line2d_12">
      <g>
       <use style="stroke:#000000;stroke-width:0.8;" x="406.090689" xlink:href="#m479d475bb6" y="322.74601"/>
      </g>
     </g>
     <g id="text_6">
      <!-- 99$\%\cdot x_0$ -->
      <g transform="translate(382.090689 338.864135)scale(0.12 -0.12)">
       <use transform="translate(0 0.78125)" xlink:href="#DejaVuSans-57"/>
       <use transform="translate(63.623047 0.78125)" xlink:href="#DejaVuSans-57"/>
       <use transform="translate(127.246094 0.78125)" xlink:href="#DejaVuSans-37"/>
       <use transform="translate(241.748047 0.78125)" xlink:href="#DejaVuSans-8901"/>
       <use transform="translate(293.017578 0.78125)" xlink:href="#DejaVuSans-Oblique-120"/>
       <use transform="translate(352.197266 -15.625)scale(0.7)" xlink:href="#DejaVuSans-48"/>
      </g>
     </g>
    </g>
    <g id="xtick_7">
     <g id="line2d_13">
      <path clip-path="url(#pb2085918c9)" d="M 463.347967 322.74601 
L 463.347967 19.94199 
" style="fill:none;stroke:#b0b0b0;stroke-linecap:square;stroke-width:0.8;"/>
     </g>
     <g id="line2d_14">
      <g>
       <use style="stroke:#000000;stroke-width:0.8;" x="463.347967" xlink:href="#m479d475bb6" y="322.74601"/>
      </g>
     </g>
     <g id="text_7">
      <!-- 100$\%\cdot x_0$ -->
      <g transform="translate(435.507967 338.864135)scale(0.12 -0.12)">
       <defs>
        <path d="M 12.40625 8.296875 
L 28.515625 8.296875 
L 28.515625 63.921875 
L 10.984375 60.40625 
L 10.984375 69.390625 
L 28.421875 72.90625 
L 38.28125 72.90625 
L 38.28125 8.296875 
L 54.390625 8.296875 
L 54.390625 0 
L 12.40625 0 
z
" id="DejaVuSans-49"/>
       </defs>
       <use transform="translate(0 0.78125)" xlink:href="#DejaVuSans-49"/>
       <use transform="translate(63.623047 0.78125)" xlink:href="#DejaVuSans-48"/>
       <use transform="translate(127.246094 0.78125)" xlink:href="#DejaVuSans-48"/>
       <use transform="translate(190.869141 0.78125)" xlink:href="#DejaVuSans-37"/>
       <use transform="translate(305.371094 0.78125)" xlink:href="#DejaVuSans-8901"/>
       <use transform="translate(356.640625 0.78125)" xlink:href="#DejaVuSans-Oblique-120"/>
       <use transform="translate(415.820312 -15.625)scale(0.7)" xlink:href="#DejaVuSans-48"/>
      </g>
     </g>
    </g>
    <g id="xtick_8">
     <g id="line2d_15">
      <path clip-path="url(#pb2085918c9)" d="M 520.605244 322.74601 
L 520.605244 19.94199 
" style="fill:none;stroke:#b0b0b0;stroke-linecap:square;stroke-width:0.8;"/>
     </g>
     <g id="line2d_16">
      <g>
       <use style="stroke:#000000;stroke-width:0.8;" x="520.605244" xlink:href="#m479d475bb6" y="322.74601"/>
      </g>
     </g>
     <g id="text_8">
      <!-- 101$\%\cdot x_0$ -->
      <g transform="translate(492.765244 338.864135)scale(0.12 -0.12)">
       <use transform="translate(0 0.78125)" xlink:href="#DejaVuSans-49"/>
       <use transform="translate(63.623047 0.78125)" xlink:href="#DejaVuSans-48"/>
       <use transform="translate(127.246094 0.78125)" xlink:href="#DejaVuSans-49"/>
       <use transform="translate(190.869141 0.78125)" xlink:href="#DejaVuSans-37"/>
       <use transform="translate(305.371094 0.78125)" xlink:href="#DejaVuSans-8901"/>
       <use transform="translate(356.640625 0.78125)" xlink:href="#DejaVuSans-Oblique-120"/>
       <use transform="translate(415.820312 -15.625)scale(0.7)" xlink:href="#DejaVuSans-48"/>
      </g>
     </g>
    </g>
    <g id="xtick_9">
     <g id="line2d_17">
      <path clip-path="url(#pb2085918c9)" d="M 577.862522 322.74601 
L 577.862522 19.94199 
" style="fill:none;stroke:#b0b0b0;stroke-linecap:square;stroke-width:0.8;"/>
     </g>
     <g id="line2d_18">
      <g>
       <use style="stroke:#000000;stroke-width:0.8;" x="577.862522" xlink:href="#m479d475bb6" y="322.74601"/>
      </g>
     </g>
     <g id="text_9">
      <!-- 105$\%\cdot x_0$ -->
      <g transform="translate(550.022522 338.864135)scale(0.12 -0.12)">
       <use transform="translate(0 0.78125)" xlink:href="#DejaVuSans-49"/>
       <use transform="translate(63.623047 0.78125)" xlink:href="#DejaVuSans-48"/>
       <use transform="translate(127.246094 0.78125)" xlink:href="#DejaVuSans-53"/>
       <use transform="translate(190.869141 0.78125)" xlink:href="#DejaVuSans-37"/>
       <use transform="translate(305.371094 0.78125)" xlink:href="#DejaVuSans-8901"/>
       <use transform="translate(356.640625 0.78125)" xlink:href="#DejaVuSans-Oblique-120"/>
       <use transform="translate(415.820312 -15.625)scale(0.7)" xlink:href="#DejaVuSans-48"/>
      </g>
     </g>
    </g>
    <g id="xtick_10">
     <g id="line2d_19">
      <path clip-path="url(#pb2085918c9)" d="M 635.1198 322.74601 
L 635.1198 19.94199 
" style="fill:none;stroke:#b0b0b0;stroke-linecap:square;stroke-width:0.8;"/>
     </g>
     <g id="line2d_20">
      <g>
       <use style="stroke:#000000;stroke-width:0.8;" x="635.1198" xlink:href="#m479d475bb6" y="322.74601"/>
      </g>
     </g>
     <g id="text_10">
      <!-- 110$\%\cdot x_0$ -->
      <g transform="translate(607.2798 338.864135)scale(0.12 -0.12)">
       <use transform="translate(0 0.78125)" xlink:href="#DejaVuSans-49"/>
       <use transform="translate(63.623047 0.78125)" xlink:href="#DejaVuSans-49"/>
       <use transform="translate(127.246094 0.78125)" xlink:href="#DejaVuSans-48"/>
       <use transform="translate(190.869141 0.78125)" xlink:href="#DejaVuSans-37"/>
       <use transform="translate(305.371094 0.78125)" xlink:href="#DejaVuSans-8901"/>
       <use transform="translate(356.640625 0.78125)" xlink:href="#DejaVuSans-Oblique-120"/>
       <use transform="translate(415.820312 -15.625)scale(0.7)" xlink:href="#DejaVuSans-48"/>
      </g>
     </g>
    </g>
    <g id="xtick_11">
     <g id="line2d_21">
      <path clip-path="url(#pb2085918c9)" d="M 692.377077 322.74601 
L 692.377077 19.94199 
" style="fill:none;stroke:#b0b0b0;stroke-linecap:square;stroke-width:0.8;"/>
     </g>
     <g id="line2d_22">
      <g>
       <use style="stroke:#000000;stroke-width:0.8;" x="692.377077" xlink:href="#m479d475bb6" y="322.74601"/>
      </g>
     </g>
     <g id="text_11">
      <!-- 114$\%\cdot x_0$ -->
      <g transform="translate(664.537077 338.864135)scale(0.12 -0.12)">
       <defs>
        <path d="M 37.796875 64.3125 
L 12.890625 25.390625 
L 37.796875 25.390625 
z
M 35.203125 72.90625 
L 47.609375 72.90625 
L 47.609375 25.390625 
L 58.015625 25.390625 
L 58.015625 17.1875 
L 47.609375 17.1875 
L 47.609375 0 
L 37.796875 0 
L 37.796875 17.1875 
L 4.890625 17.1875 
L 4.890625 26.703125 
z
" id="DejaVuSans-52"/>
       </defs>
       <use transform="translate(0 0.78125)" xlink:href="#DejaVuSans-49"/>
       <use transform="translate(63.623047 0.78125)" xlink:href="#DejaVuSans-49"/>
       <use transform="translate(127.246094 0.78125)" xlink:href="#DejaVuSans-52"/>
       <use transform="translate(190.869141 0.78125)" xlink:href="#DejaVuSans-37"/>
       <use transform="translate(305.371094 0.78125)" xlink:href="#DejaVuSans-8901"/>
       <use transform="translate(356.640625 0.78125)" xlink:href="#DejaVuSans-Oblique-120"/>
       <use transform="translate(415.820312 -15.625)scale(0.7)" xlink:href="#DejaVuSans-48"/>
      </g>
     </g>
    </g>
    <g id="xtick_12">
     <g id="line2d_23">
      <path clip-path="url(#pb2085918c9)" d="M 749.634355 322.74601 
L 749.634355 19.94199 
" style="fill:none;stroke:#b0b0b0;stroke-linecap:square;stroke-width:0.8;"/>
     </g>
     <g id="line2d_24">
      <g>
       <use style="stroke:#000000;stroke-width:0.8;" x="749.634355" xlink:href="#m479d475bb6" y="322.74601"/>
      </g>
     </g>
     <g id="text_12">
      <!-- 120$\%\cdot x_0$ -->
      <g transform="translate(721.794355 338.864135)scale(0.12 -0.12)">
       <defs>
        <path d="M 19.1875 8.296875 
L 53.609375 8.296875 
L 53.609375 0 
L 7.328125 0 
L 7.328125 8.296875 
Q 12.9375 14.109375 22.625 23.890625 
Q 32.328125 33.6875 34.8125 36.53125 
Q 39.546875 41.84375 41.421875 45.53125 
Q 43.3125 49.21875 43.3125 52.78125 
Q 43.3125 58.59375 39.234375 62.25 
Q 35.15625 65.921875 28.609375 65.921875 
Q 23.96875 65.921875 18.8125 64.3125 
Q 13.671875 62.703125 7.8125 59.421875 
L 7.8125 69.390625 
Q 13.765625 71.78125 18.9375 73 
Q 24.125 74.21875 28.421875 74.21875 
Q 39.75 74.21875 46.484375 68.546875 
Q 53.21875 62.890625 53.21875 53.421875 
Q 53.21875 48.921875 51.53125 44.890625 
Q 49.859375 40.875 45.40625 35.40625 
Q 44.1875 33.984375 37.640625 27.21875 
Q 31.109375 20.453125 19.1875 8.296875 
z
" id="DejaVuSans-50"/>
       </defs>
       <use transform="translate(0 0.78125)" xlink:href="#DejaVuSans-49"/>
       <use transform="translate(63.623047 0.78125)" xlink:href="#DejaVuSans-50"/>
       <use transform="translate(127.246094 0.78125)" xlink:href="#DejaVuSans-48"/>
       <use transform="translate(190.869141 0.78125)" xlink:href="#DejaVuSans-37"/>
       <use transform="translate(305.371094 0.78125)" xlink:href="#DejaVuSans-8901"/>
       <use transform="translate(356.640625 0.78125)" xlink:href="#DejaVuSans-Oblique-120"/>
       <use transform="translate(415.820312 -15.625)scale(0.7)" xlink:href="#DejaVuSans-48"/>
      </g>
     </g>
    </g>
    <g id="xtick_13">
     <g id="line2d_25">
      <path clip-path="url(#pb2085918c9)" d="M 806.891633 322.74601 
L 806.891633 19.94199 
" style="fill:none;stroke:#b0b0b0;stroke-linecap:square;stroke-width:0.8;"/>
     </g>
     <g id="line2d_26">
      <g>
       <use style="stroke:#000000;stroke-width:0.8;" x="806.891633" xlink:href="#m479d475bb6" y="322.74601"/>
      </g>
     </g>
     <g id="text_13">
      <!-- 125$\%\cdot x_0$ -->
      <g transform="translate(779.051633 338.864135)scale(0.12 -0.12)">
       <use transform="translate(0 0.78125)" xlink:href="#DejaVuSans-49"/>
       <use transform="translate(63.623047 0.78125)" xlink:href="#DejaVuSans-50"/>
       <use transform="translate(127.246094 0.78125)" xlink:href="#DejaVuSans-53"/>
       <use transform="translate(190.869141 0.78125)" xlink:href="#DejaVuSans-37"/>
       <use transform="translate(305.371094 0.78125)" xlink:href="#DejaVuSans-8901"/>
       <use transform="translate(356.640625 0.78125)" xlink:href="#DejaVuSans-Oblique-120"/>
       <use transform="translate(415.820312 -15.625)scale(0.7)" xlink:href="#DejaVuSans-48"/>
      </g>
     </g>
    </g>
    <g id="text_14">
     <!-- New initial condition with respect to the base one $x_0$ -->
     <g transform="translate(297.319375 354.47976)scale(0.12 -0.12)">
      <defs>
       <path d="M 9.8125 72.90625 
L 23.09375 72.90625 
L 55.421875 11.921875 
L 55.421875 72.90625 
L 64.984375 72.90625 
L 64.984375 0 
L 51.703125 0 
L 19.390625 60.984375 
L 19.390625 0 
L 9.8125 0 
z
" id="DejaVuSans-78"/>
       <path d="M 56.203125 29.59375 
L 56.203125 25.203125 
L 14.890625 25.203125 
Q 15.484375 15.921875 20.484375 11.0625 
Q 25.484375 6.203125 34.421875 6.203125 
Q 39.59375 6.203125 44.453125 7.46875 
Q 49.3125 8.734375 54.109375 11.28125 
L 54.109375 2.78125 
Q 49.265625 0.734375 44.1875 -0.34375 
Q 39.109375 -1.421875 33.890625 -1.421875 
Q 20.796875 -1.421875 13.15625 6.1875 
Q 5.515625 13.8125 5.515625 26.8125 
Q 5.515625 40.234375 12.765625 48.109375 
Q 20.015625 56 32.328125 56 
Q 43.359375 56 49.78125 48.890625 
Q 56.203125 41.796875 56.203125 29.59375 
z
M 47.21875 32.234375 
Q 47.125 39.59375 43.09375 43.984375 
Q 39.0625 48.390625 32.421875 48.390625 
Q 24.90625 48.390625 20.390625 44.140625 
Q 15.875 39.890625 15.1875 32.171875 
z
" id="DejaVuSans-101"/>
       <path d="M 4.203125 54.6875 
L 13.1875 54.6875 
L 24.421875 12.015625 
L 35.59375 54.6875 
L 46.1875 54.6875 
L 57.421875 12.015625 
L 68.609375 54.6875 
L 77.59375 54.6875 
L 63.28125 0 
L 52.6875 0 
L 40.921875 44.828125 
L 29.109375 0 
L 18.5 0 
z
" id="DejaVuSans-119"/>
       <path id="DejaVuSans-32"/>
       <path d="M 9.421875 54.6875 
L 18.40625 54.6875 
L 18.40625 0 
L 9.421875 0 
z
M 9.421875 75.984375 
L 18.40625 75.984375 
L 18.40625 64.59375 
L 9.421875 64.59375 
z
" id="DejaVuSans-105"/>
       <path d="M 54.890625 33.015625 
L 54.890625 0 
L 45.90625 0 
L 45.90625 32.71875 
Q 45.90625 40.484375 42.875 44.328125 
Q 39.84375 48.1875 33.796875 48.1875 
Q 26.515625 48.1875 22.3125 43.546875 
Q 18.109375 38.921875 18.109375 30.90625 
L 18.109375 0 
L 9.078125 0 
L 9.078125 54.6875 
L 18.109375 54.6875 
L 18.109375 46.1875 
Q 21.34375 51.125 25.703125 53.5625 
Q 30.078125 56 35.796875 56 
Q 45.21875 56 50.046875 50.171875 
Q 54.890625 44.34375 54.890625 33.015625 
z
" id="DejaVuSans-110"/>
       <path d="M 18.3125 70.21875 
L 18.3125 54.6875 
L 36.8125 54.6875 
L 36.8125 47.703125 
L 18.3125 47.703125 
L 18.3125 18.015625 
Q 18.3125 11.328125 20.140625 9.421875 
Q 21.96875 7.515625 27.59375 7.515625 
L 36.8125 7.515625 
L 36.8125 0 
L 27.59375 0 
Q 17.1875 0 13.234375 3.875 
Q 9.28125 7.765625 9.28125 18.015625 
L 9.28125 47.703125 
L 2.6875 47.703125 
L 2.6875 54.6875 
L 9.28125 54.6875 
L 9.28125 70.21875 
z
" id="DejaVuSans-116"/>
       <path d="M 34.28125 27.484375 
Q 23.390625 27.484375 19.1875 25 
Q 14.984375 22.515625 14.984375 16.5 
Q 14.984375 11.71875 18.140625 8.90625 
Q 21.296875 6.109375 26.703125 6.109375 
Q 34.1875 6.109375 38.703125 11.40625 
Q 43.21875 16.703125 43.21875 25.484375 
L 43.21875 27.484375 
z
M 52.203125 31.203125 
L 52.203125 0 
L 43.21875 0 
L 43.21875 8.296875 
Q 40.140625 3.328125 35.546875 0.953125 
Q 30.953125 -1.421875 24.3125 -1.421875 
Q 15.921875 -1.421875 10.953125 3.296875 
Q 6 8.015625 6 15.921875 
Q 6 25.140625 12.171875 29.828125 
Q 18.359375 34.515625 30.609375 34.515625 
L 43.21875 34.515625 
L 43.21875 35.40625 
Q 43.21875 41.609375 39.140625 45 
Q 35.0625 48.390625 27.6875 48.390625 
Q 23 48.390625 18.546875 47.265625 
Q 14.109375 46.140625 10.015625 43.890625 
L 10.015625 52.203125 
Q 14.9375 54.109375 19.578125 55.046875 
Q 24.21875 56 28.609375 56 
Q 40.484375 56 46.34375 49.84375 
Q 52.203125 43.703125 52.203125 31.203125 
z
" id="DejaVuSans-97"/>
       <path d="M 9.421875 75.984375 
L 18.40625 75.984375 
L 18.40625 0 
L 9.421875 0 
z
" id="DejaVuSans-108"/>
       <path d="M 48.78125 52.59375 
L 48.78125 44.1875 
Q 44.96875 46.296875 41.140625 47.34375 
Q 37.3125 48.390625 33.40625 48.390625 
Q 24.65625 48.390625 19.8125 42.84375 
Q 14.984375 37.3125 14.984375 27.296875 
Q 14.984375 17.28125 19.8125 11.734375 
Q 24.65625 6.203125 33.40625 6.203125 
Q 37.3125 6.203125 41.140625 7.25 
Q 44.96875 8.296875 48.78125 10.40625 
L 48.78125 2.09375 
Q 45.015625 0.34375 40.984375 -0.53125 
Q 36.96875 -1.421875 32.421875 -1.421875 
Q 20.0625 -1.421875 12.78125 6.34375 
Q 5.515625 14.109375 5.515625 27.296875 
Q 5.515625 40.671875 12.859375 48.328125 
Q 20.21875 56 33.015625 56 
Q 37.15625 56 41.109375 55.140625 
Q 45.0625 54.296875 48.78125 52.59375 
z
" id="DejaVuSans-99"/>
       <path d="M 30.609375 48.390625 
Q 23.390625 48.390625 19.1875 42.75 
Q 14.984375 37.109375 14.984375 27.296875 
Q 14.984375 17.484375 19.15625 11.84375 
Q 23.34375 6.203125 30.609375 6.203125 
Q 37.796875 6.203125 41.984375 11.859375 
Q 46.1875 17.53125 46.1875 27.296875 
Q 46.1875 37.015625 41.984375 42.703125 
Q 37.796875 48.390625 30.609375 48.390625 
z
M 30.609375 56 
Q 42.328125 56 49.015625 48.375 
Q 55.71875 40.765625 55.71875 27.296875 
Q 55.71875 13.875 49.015625 6.21875 
Q 42.328125 -1.421875 30.609375 -1.421875 
Q 18.84375 -1.421875 12.171875 6.21875 
Q 5.515625 13.875 5.515625 27.296875 
Q 5.515625 40.765625 12.171875 48.375 
Q 18.84375 56 30.609375 56 
z
" id="DejaVuSans-111"/>
       <path d="M 45.40625 46.390625 
L 45.40625 75.984375 
L 54.390625 75.984375 
L 54.390625 0 
L 45.40625 0 
L 45.40625 8.203125 
Q 42.578125 3.328125 38.25 0.953125 
Q 33.9375 -1.421875 27.875 -1.421875 
Q 17.96875 -1.421875 11.734375 6.484375 
Q 5.515625 14.40625 5.515625 27.296875 
Q 5.515625 40.1875 11.734375 48.09375 
Q 17.96875 56 27.875 56 
Q 33.9375 56 38.25 53.625 
Q 42.578125 51.265625 45.40625 46.390625 
z
M 14.796875 27.296875 
Q 14.796875 17.390625 18.875 11.75 
Q 22.953125 6.109375 30.078125 6.109375 
Q 37.203125 6.109375 41.296875 11.75 
Q 45.40625 17.390625 45.40625 27.296875 
Q 45.40625 37.203125 41.296875 42.84375 
Q 37.203125 48.484375 30.078125 48.484375 
Q 22.953125 48.484375 18.875 42.84375 
Q 14.796875 37.203125 14.796875 27.296875 
z
" id="DejaVuSans-100"/>
       <path d="M 54.890625 33.015625 
L 54.890625 0 
L 45.90625 0 
L 45.90625 32.71875 
Q 45.90625 40.484375 42.875 44.328125 
Q 39.84375 48.1875 33.796875 48.1875 
Q 26.515625 48.1875 22.3125 43.546875 
Q 18.109375 38.921875 18.109375 30.90625 
L 18.109375 0 
L 9.078125 0 
L 9.078125 75.984375 
L 18.109375 75.984375 
L 18.109375 46.1875 
Q 21.34375 51.125 25.703125 53.5625 
Q 30.078125 56 35.796875 56 
Q 45.21875 56 50.046875 50.171875 
Q 54.890625 44.34375 54.890625 33.015625 
z
" id="DejaVuSans-104"/>
       <path d="M 41.109375 46.296875 
Q 39.59375 47.171875 37.8125 47.578125 
Q 36.03125 48 33.890625 48 
Q 26.265625 48 22.1875 43.046875 
Q 18.109375 38.09375 18.109375 28.8125 
L 18.109375 0 
L 9.078125 0 
L 9.078125 54.6875 
L 18.109375 54.6875 
L 18.109375 46.1875 
Q 20.953125 51.171875 25.484375 53.578125 
Q 30.03125 56 36.53125 56 
Q 37.453125 56 38.578125 55.875 
Q 39.703125 55.765625 41.0625 55.515625 
z
" id="DejaVuSans-114"/>
       <path d="M 44.28125 53.078125 
L 44.28125 44.578125 
Q 40.484375 46.53125 36.375 47.5 
Q 32.28125 48.484375 27.875 48.484375 
Q 21.1875 48.484375 17.84375 46.4375 
Q 14.5 44.390625 14.5 40.28125 
Q 14.5 37.15625 16.890625 35.375 
Q 19.28125 33.59375 26.515625 31.984375 
L 29.59375 31.296875 
Q 39.15625 29.25 43.1875 25.515625 
Q 47.21875 21.78125 47.21875 15.09375 
Q 47.21875 7.46875 41.1875 3.015625 
Q 35.15625 -1.421875 24.609375 -1.421875 
Q 20.21875 -1.421875 15.453125 -0.5625 
Q 10.6875 0.296875 5.421875 2 
L 5.421875 11.28125 
Q 10.40625 8.6875 15.234375 7.390625 
Q 20.0625 6.109375 24.8125 6.109375 
Q 31.15625 6.109375 34.5625 8.28125 
Q 37.984375 10.453125 37.984375 14.40625 
Q 37.984375 18.0625 35.515625 20.015625 
Q 33.0625 21.96875 24.703125 23.78125 
L 21.578125 24.515625 
Q 13.234375 26.265625 9.515625 29.90625 
Q 5.8125 33.546875 5.8125 39.890625 
Q 5.8125 47.609375 11.28125 51.796875 
Q 16.75 56 26.8125 56 
Q 31.78125 56 36.171875 55.265625 
Q 40.578125 54.546875 44.28125 53.078125 
z
" id="DejaVuSans-115"/>
       <path d="M 18.109375 8.203125 
L 18.109375 -20.796875 
L 9.078125 -20.796875 
L 9.078125 54.6875 
L 18.109375 54.6875 
L 18.109375 46.390625 
Q 20.953125 51.265625 25.265625 53.625 
Q 29.59375 56 35.59375 56 
Q 45.5625 56 51.78125 48.09375 
Q 58.015625 40.1875 58.015625 27.296875 
Q 58.015625 14.40625 51.78125 6.484375 
Q 45.5625 -1.421875 35.59375 -1.421875 
Q 29.59375 -1.421875 25.265625 0.953125 
Q 20.953125 3.328125 18.109375 8.203125 
z
M 48.6875 27.296875 
Q 48.6875 37.203125 44.609375 42.84375 
Q 40.53125 48.484375 33.40625 48.484375 
Q 26.265625 48.484375 22.1875 42.84375 
Q 18.109375 37.203125 18.109375 27.296875 
Q 18.109375 17.390625 22.1875 11.75 
Q 26.265625 6.109375 33.40625 6.109375 
Q 40.53125 6.109375 44.609375 11.75 
Q 48.6875 17.390625 48.6875 27.296875 
z
" id="DejaVuSans-112"/>
       <path d="M 48.6875 27.296875 
Q 48.6875 37.203125 44.609375 42.84375 
Q 40.53125 48.484375 33.40625 48.484375 
Q 26.265625 48.484375 22.1875 42.84375 
Q 18.109375 37.203125 18.109375 27.296875 
Q 18.109375 17.390625 22.1875 11.75 
Q 26.265625 6.109375 33.40625 6.109375 
Q 40.53125 6.109375 44.609375 11.75 
Q 48.6875 17.390625 48.6875 27.296875 
z
M 18.109375 46.390625 
Q 20.953125 51.265625 25.265625 53.625 
Q 29.59375 56 35.59375 56 
Q 45.5625 56 51.78125 48.09375 
Q 58.015625 40.1875 58.015625 27.296875 
Q 58.015625 14.40625 51.78125 6.484375 
Q 45.5625 -1.421875 35.59375 -1.421875 
Q 29.59375 -1.421875 25.265625 0.953125 
Q 20.953125 3.328125 18.109375 8.203125 
L 18.109375 0 
L 9.078125 0 
L 9.078125 75.984375 
L 18.109375 75.984375 
z
" id="DejaVuSans-98"/>
      </defs>
      <use transform="translate(0 0.015625)" xlink:href="#DejaVuSans-78"/>
      <use transform="translate(74.804688 0.015625)" xlink:href="#DejaVuSans-101"/>
      <use transform="translate(136.328125 0.015625)" xlink:href="#DejaVuSans-119"/>
      <use transform="translate(218.115234 0.015625)" xlink:href="#DejaVuSans-32"/>
      <use transform="translate(249.902344 0.015625)" xlink:href="#DejaVuSans-105"/>
      <use transform="translate(277.685547 0.015625)" xlink:href="#DejaVuSans-110"/>
      <use transform="translate(341.064453 0.015625)" xlink:href="#DejaVuSans-105"/>
      <use transform="translate(368.847656 0.015625)" xlink:href="#DejaVuSans-116"/>
      <use transform="translate(408.056641 0.015625)" xlink:href="#DejaVuSans-105"/>
      <use transform="translate(435.839844 0.015625)" xlink:href="#DejaVuSans-97"/>
      <use transform="translate(497.119141 0.015625)" xlink:href="#DejaVuSans-108"/>
      <use transform="translate(524.902344 0.015625)" xlink:href="#DejaVuSans-32"/>
      <use transform="translate(556.689453 0.015625)" xlink:href="#DejaVuSans-99"/>
      <use transform="translate(611.669922 0.015625)" xlink:href="#DejaVuSans-111"/>
      <use transform="translate(672.851562 0.015625)" xlink:href="#DejaVuSans-110"/>
      <use transform="translate(736.230469 0.015625)" xlink:href="#DejaVuSans-100"/>
      <use transform="translate(799.707031 0.015625)" xlink:href="#DejaVuSans-105"/>
      <use transform="translate(827.490234 0.015625)" xlink:href="#DejaVuSans-116"/>
      <use transform="translate(866.699219 0.015625)" xlink:href="#DejaVuSans-105"/>
      <use transform="translate(894.482422 0.015625)" xlink:href="#DejaVuSans-111"/>
      <use transform="translate(955.664062 0.015625)" xlink:href="#DejaVuSans-110"/>
      <use transform="translate(1019.042969 0.015625)" xlink:href="#DejaVuSans-32"/>
      <use transform="translate(1050.830078 0.015625)" xlink:href="#DejaVuSans-119"/>
      <use transform="translate(1132.617188 0.015625)" xlink:href="#DejaVuSans-105"/>
      <use transform="translate(1160.400391 0.015625)" xlink:href="#DejaVuSans-116"/>
      <use transform="translate(1199.609375 0.015625)" xlink:href="#DejaVuSans-104"/>
      <use transform="translate(1262.988281 0.015625)" xlink:href="#DejaVuSans-32"/>
      <use transform="translate(1294.775391 0.015625)" xlink:href="#DejaVuSans-114"/>
      <use transform="translate(1335.888672 0.015625)" xlink:href="#DejaVuSans-101"/>
      <use transform="translate(1397.412109 0.015625)" xlink:href="#DejaVuSans-115"/>
      <use transform="translate(1449.511719 0.015625)" xlink:href="#DejaVuSans-112"/>
      <use transform="translate(1512.988281 0.015625)" xlink:href="#DejaVuSans-101"/>
      <use transform="translate(1574.511719 0.015625)" xlink:href="#DejaVuSans-99"/>
      <use transform="translate(1629.492188 0.015625)" xlink:href="#DejaVuSans-116"/>
      <use transform="translate(1668.701172 0.015625)" xlink:href="#DejaVuSans-32"/>
      <use transform="translate(1700.488281 0.015625)" xlink:href="#DejaVuSans-116"/>
      <use transform="translate(1739.697266 0.015625)" xlink:href="#DejaVuSans-111"/>
      <use transform="translate(1800.878906 0.015625)" xlink:href="#DejaVuSans-32"/>
      <use transform="translate(1832.666016 0.015625)" xlink:href="#DejaVuSans-116"/>
      <use transform="translate(1871.875 0.015625)" xlink:href="#DejaVuSans-104"/>
      <use transform="translate(1935.253906 0.015625)" xlink:href="#DejaVuSans-101"/>
      <use transform="translate(1996.777344 0.015625)" xlink:href="#DejaVuSans-32"/>
      <use transform="translate(2028.564453 0.015625)" xlink:href="#DejaVuSans-98"/>
      <use transform="translate(2092.041016 0.015625)" xlink:href="#DejaVuSans-97"/>
      <use transform="translate(2153.320312 0.015625)" xlink:href="#DejaVuSans-115"/>
      <use transform="translate(2205.419922 0.015625)" xlink:href="#DejaVuSans-101"/>
      <use transform="translate(2266.943359 0.015625)" xlink:href="#DejaVuSans-32"/>
      <use transform="translate(2298.730469 0.015625)" xlink:href="#DejaVuSans-111"/>
      <use transform="translate(2359.912109 0.015625)" xlink:href="#DejaVuSans-110"/>
      <use transform="translate(2423.291016 0.015625)" xlink:href="#DejaVuSans-101"/>
      <use transform="translate(2484.814453 0.015625)" xlink:href="#DejaVuSans-32"/>
      <use transform="translate(2516.601562 0.015625)" xlink:href="#DejaVuSans-Oblique-120"/>
      <use transform="translate(2575.78125 -16.390625)scale(0.7)" xlink:href="#DejaVuSans-48"/>
     </g>
    </g>
   </g>
   <g id="matplotlib.axis_2">
    <g id="ytick_1">
     <g id="line2d_27">
      <path clip-path="url(#pb2085918c9)" d="M 48.51899 322.74601 
L 860.99976 322.74601 
" style="fill:none;stroke:#b0b0b0;stroke-linecap:square;stroke-width:0.8;"/>
     </g>
     <g id="line2d_28">
      <defs>
       <path d="M 0 0 
L -3.5 0 
" id="m4fb4280800" style="stroke:#000000;stroke-width:0.8;"/>
      </defs>
      <g>
       <use style="stroke:#000000;stroke-width:0.8;" x="48.51899" xlink:href="#m4fb4280800" y="322.74601"/>
      </g>
     </g>
     <g id="text_15">
      <!-- 0 -->
      <g transform="translate(33.88399 327.305072)scale(0.12 -0.12)">
       <use xlink:href="#DejaVuSans-48"/>
      </g>
     </g>
    </g>
    <g id="ytick_2">
     <g id="line2d_29">
      <path clip-path="url(#pb2085918c9)" d="M 48.51899 265.084582 
L 860.99976 265.084582 
" style="fill:none;stroke:#b0b0b0;stroke-linecap:square;stroke-width:0.8;"/>
     </g>
     <g id="line2d_30">
      <g>
       <use style="stroke:#000000;stroke-width:0.8;" x="48.51899" xlink:href="#m4fb4280800" y="265.084582"/>
      </g>
     </g>
     <g id="text_16">
      <!-- 20 -->
      <g transform="translate(26.24899 269.643645)scale(0.12 -0.12)">
       <use xlink:href="#DejaVuSans-50"/>
       <use x="63.623047" xlink:href="#DejaVuSans-48"/>
      </g>
     </g>
    </g>
    <g id="ytick_3">
     <g id="line2d_31">
      <path clip-path="url(#pb2085918c9)" d="M 48.51899 207.423155 
L 860.99976 207.423155 
" style="fill:none;stroke:#b0b0b0;stroke-linecap:square;stroke-width:0.8;"/>
     </g>
     <g id="line2d_32">
      <g>
       <use style="stroke:#000000;stroke-width:0.8;" x="48.51899" xlink:href="#m4fb4280800" y="207.423155"/>
      </g>
     </g>
     <g id="text_17">
      <!-- 40 -->
      <g transform="translate(26.24899 211.982217)scale(0.12 -0.12)">
       <use xlink:href="#DejaVuSans-52"/>
       <use x="63.623047" xlink:href="#DejaVuSans-48"/>
      </g>
     </g>
    </g>
    <g id="ytick_4">
     <g id="line2d_33">
      <path clip-path="url(#pb2085918c9)" d="M 48.51899 149.761727 
L 860.99976 149.761727 
" style="fill:none;stroke:#b0b0b0;stroke-linecap:square;stroke-width:0.8;"/>
     </g>
     <g id="line2d_34">
      <g>
       <use style="stroke:#000000;stroke-width:0.8;" x="48.51899" xlink:href="#m4fb4280800" y="149.761727"/>
      </g>
     </g>
     <g id="text_18">
      <!-- 60 -->
      <g transform="translate(26.24899 154.32079)scale(0.12 -0.12)">
       <defs>
        <path d="M 33.015625 40.375 
Q 26.375 40.375 22.484375 35.828125 
Q 18.609375 31.296875 18.609375 23.390625 
Q 18.609375 15.53125 22.484375 10.953125 
Q 26.375 6.390625 33.015625 6.390625 
Q 39.65625 6.390625 43.53125 10.953125 
Q 47.40625 15.53125 47.40625 23.390625 
Q 47.40625 31.296875 43.53125 35.828125 
Q 39.65625 40.375 33.015625 40.375 
z
M 52.59375 71.296875 
L 52.59375 62.3125 
Q 48.875 64.0625 45.09375 64.984375 
Q 41.3125 65.921875 37.59375 65.921875 
Q 27.828125 65.921875 22.671875 59.328125 
Q 17.53125 52.734375 16.796875 39.40625 
Q 19.671875 43.65625 24.015625 45.921875 
Q 28.375 48.1875 33.59375 48.1875 
Q 44.578125 48.1875 50.953125 41.515625 
Q 57.328125 34.859375 57.328125 23.390625 
Q 57.328125 12.15625 50.6875 5.359375 
Q 44.046875 -1.421875 33.015625 -1.421875 
Q 20.359375 -1.421875 13.671875 8.265625 
Q 6.984375 17.96875 6.984375 36.375 
Q 6.984375 53.65625 15.1875 63.9375 
Q 23.390625 74.21875 37.203125 74.21875 
Q 40.921875 74.21875 44.703125 73.484375 
Q 48.484375 72.75 52.59375 71.296875 
z
" id="DejaVuSans-54"/>
       </defs>
       <use xlink:href="#DejaVuSans-54"/>
       <use x="63.623047" xlink:href="#DejaVuSans-48"/>
      </g>
     </g>
    </g>
    <g id="ytick_5">
     <g id="line2d_35">
      <path clip-path="url(#pb2085918c9)" d="M 48.51899 92.1003 
L 860.99976 92.1003 
" style="fill:none;stroke:#b0b0b0;stroke-linecap:square;stroke-width:0.8;"/>
     </g>
     <g id="line2d_36">
      <g>
       <use style="stroke:#000000;stroke-width:0.8;" x="48.51899" xlink:href="#m4fb4280800" y="92.1003"/>
      </g>
     </g>
     <g id="text_19">
      <!-- 80 -->
      <g transform="translate(26.24899 96.659362)scale(0.12 -0.12)">
       <use xlink:href="#DejaVuSans-56"/>
       <use x="63.623047" xlink:href="#DejaVuSans-48"/>
      </g>
     </g>
    </g>
    <g id="ytick_6">
     <g id="line2d_37">
      <path clip-path="url(#pb2085918c9)" d="M 48.51899 34.438872 
L 860.99976 34.438872 
" style="fill:none;stroke:#b0b0b0;stroke-linecap:square;stroke-width:0.8;"/>
     </g>
     <g id="line2d_38">
      <g>
       <use style="stroke:#000000;stroke-width:0.8;" x="48.51899" xlink:href="#m4fb4280800" y="34.438872"/>
      </g>
     </g>
     <g id="text_20">
      <!-- 100 -->
      <g transform="translate(18.61399 38.997935)scale(0.12 -0.12)">
       <use xlink:href="#DejaVuSans-49"/>
       <use x="63.623047" xlink:href="#DejaVuSans-48"/>
       <use x="127.246094" xlink:href="#DejaVuSans-48"/>
      </g>
     </g>
    </g>
    <g id="text_21">
     <!-- LQR cost ratio in [%] -->
     <g transform="translate(12.118365 233.340875)rotate(-90)scale(0.12 -0.12)">
      <defs>
       <path d="M 9.8125 72.90625 
L 19.671875 72.90625 
L 19.671875 8.296875 
L 55.171875 8.296875 
L 55.171875 0 
L 9.8125 0 
z
" id="DejaVuSans-76"/>
       <path d="M 39.40625 66.21875 
Q 28.65625 66.21875 22.328125 58.203125 
Q 16.015625 50.203125 16.015625 36.375 
Q 16.015625 22.609375 22.328125 14.59375 
Q 28.65625 6.59375 39.40625 6.59375 
Q 50.140625 6.59375 56.421875 14.59375 
Q 62.703125 22.609375 62.703125 36.375 
Q 62.703125 50.203125 56.421875 58.203125 
Q 50.140625 66.21875 39.40625 66.21875 
z
M 53.21875 1.3125 
L 66.21875 -12.890625 
L 54.296875 -12.890625 
L 43.5 -1.21875 
Q 41.890625 -1.3125 41.03125 -1.359375 
Q 40.1875 -1.421875 39.40625 -1.421875 
Q 24.03125 -1.421875 14.8125 8.859375 
Q 5.609375 19.140625 5.609375 36.375 
Q 5.609375 53.65625 14.8125 63.9375 
Q 24.03125 74.21875 39.40625 74.21875 
Q 54.734375 74.21875 63.90625 63.9375 
Q 73.09375 53.65625 73.09375 36.375 
Q 73.09375 23.6875 67.984375 14.640625 
Q 62.890625 5.609375 53.21875 1.3125 
z
" id="DejaVuSans-81"/>
       <path d="M 44.390625 34.1875 
Q 47.5625 33.109375 50.5625 29.59375 
Q 53.5625 26.078125 56.59375 19.921875 
L 66.609375 0 
L 56 0 
L 46.6875 18.703125 
Q 43.0625 26.03125 39.671875 28.421875 
Q 36.28125 30.8125 30.421875 30.8125 
L 19.671875 30.8125 
L 19.671875 0 
L 9.8125 0 
L 9.8125 72.90625 
L 32.078125 72.90625 
Q 44.578125 72.90625 50.734375 67.671875 
Q 56.890625 62.453125 56.890625 51.90625 
Q 56.890625 45.015625 53.6875 40.46875 
Q 50.484375 35.9375 44.390625 34.1875 
z
M 19.671875 64.796875 
L 19.671875 38.921875 
L 32.078125 38.921875 
Q 39.203125 38.921875 42.84375 42.21875 
Q 46.484375 45.515625 46.484375 51.90625 
Q 46.484375 58.296875 42.84375 61.546875 
Q 39.203125 64.796875 32.078125 64.796875 
z
" id="DejaVuSans-82"/>
       <path d="M 8.59375 75.984375 
L 29.296875 75.984375 
L 29.296875 69 
L 17.578125 69 
L 17.578125 -6.203125 
L 29.296875 -6.203125 
L 29.296875 -13.1875 
L 8.59375 -13.1875 
z
" id="DejaVuSans-91"/>
       <path d="M 30.421875 75.984375 
L 30.421875 -13.1875 
L 9.71875 -13.1875 
L 9.71875 -6.203125 
L 21.390625 -6.203125 
L 21.390625 69 
L 9.71875 69 
L 9.71875 75.984375 
z
" id="DejaVuSans-93"/>
      </defs>
      <use xlink:href="#DejaVuSans-76"/>
      <use x="55.712891" xlink:href="#DejaVuSans-81"/>
      <use x="134.423828" xlink:href="#DejaVuSans-82"/>
      <use x="203.90625" xlink:href="#DejaVuSans-32"/>
      <use x="235.693359" xlink:href="#DejaVuSans-99"/>
      <use x="290.673828" xlink:href="#DejaVuSans-111"/>
      <use x="351.855469" xlink:href="#DejaVuSans-115"/>
      <use x="403.955078" xlink:href="#DejaVuSans-116"/>
      <use x="443.164062" xlink:href="#DejaVuSans-32"/>
      <use x="474.951172" xlink:href="#DejaVuSans-114"/>
      <use x="516.064453" xlink:href="#DejaVuSans-97"/>
      <use x="577.34375" xlink:href="#DejaVuSans-116"/>
      <use x="616.552734" xlink:href="#DejaVuSans-105"/>
      <use x="644.335938" xlink:href="#DejaVuSans-111"/>
      <use x="705.517578" xlink:href="#DejaVuSans-32"/>
      <use x="737.304688" xlink:href="#DejaVuSans-105"/>
      <use x="765.087891" xlink:href="#DejaVuSans-110"/>
      <use x="828.466797" xlink:href="#DejaVuSans-32"/>
      <use x="860.253906" xlink:href="#DejaVuSans-91"/>
      <use x="899.267578" xlink:href="#DejaVuSans-37"/>
      <use x="994.287109" xlink:href="#DejaVuSans-93"/>
     </g>
    </g>
   </g>
   <g id="patch_42">
    <path d="M 48.51899 322.74601 
L 48.51899 19.94199 
" style="fill:none;stroke:#000000;stroke-linecap:square;stroke-linejoin:miter;stroke-width:1.5;"/>
   </g>
   <g id="patch_43">
    <path d="M 860.99976 322.74601 
L 860.99976 19.94199 
" style="fill:none;stroke:#000000;stroke-linecap:square;stroke-linejoin:miter;stroke-width:1.5;"/>
   </g>
   <g id="patch_44">
    <path d="M 48.51899 322.74601 
L 860.99976 322.74601 
" style="fill:none;stroke:#000000;stroke-linecap:square;stroke-linejoin:miter;stroke-width:1.5;"/>
   </g>
   <g id="patch_45">
    <path d="M 48.51899 19.94199 
L 860.99976 19.94199 
" style="fill:none;stroke:#000000;stroke-linecap:square;stroke-linejoin:miter;stroke-width:1.5;"/>
   </g>
   <g id="text_22">
    <!-- Model-free control and LQR planning robustness to initial consition variations -->
    <g transform="translate(176.839375 13.94199)scale(0.144 -0.144)">
     <defs>
      <path d="M 9.8125 72.90625 
L 24.515625 72.90625 
L 43.109375 23.296875 
L 61.8125 72.90625 
L 76.515625 72.90625 
L 76.515625 0 
L 66.890625 0 
L 66.890625 64.015625 
L 48.09375 14.015625 
L 38.1875 14.015625 
L 19.390625 64.015625 
L 19.390625 0 
L 9.8125 0 
z
" id="DejaVuSans-77"/>
      <path d="M 4.890625 31.390625 
L 31.203125 31.390625 
L 31.203125 23.390625 
L 4.890625 23.390625 
z
" id="DejaVuSans-45"/>
      <path d="M 37.109375 75.984375 
L 37.109375 68.5 
L 28.515625 68.5 
Q 23.6875 68.5 21.796875 66.546875 
Q 19.921875 64.59375 19.921875 59.515625 
L 19.921875 54.6875 
L 34.71875 54.6875 
L 34.71875 47.703125 
L 19.921875 47.703125 
L 19.921875 0 
L 10.890625 0 
L 10.890625 47.703125 
L 2.296875 47.703125 
L 2.296875 54.6875 
L 10.890625 54.6875 
L 10.890625 58.5 
Q 10.890625 67.625 15.140625 71.796875 
Q 19.390625 75.984375 28.609375 75.984375 
z
" id="DejaVuSans-102"/>
      <path d="M 45.40625 27.984375 
Q 45.40625 37.75 41.375 43.109375 
Q 37.359375 48.484375 30.078125 48.484375 
Q 22.859375 48.484375 18.828125 43.109375 
Q 14.796875 37.75 14.796875 27.984375 
Q 14.796875 18.265625 18.828125 12.890625 
Q 22.859375 7.515625 30.078125 7.515625 
Q 37.359375 7.515625 41.375 12.890625 
Q 45.40625 18.265625 45.40625 27.984375 
z
M 54.390625 6.78125 
Q 54.390625 -7.171875 48.1875 -13.984375 
Q 42 -20.796875 29.203125 -20.796875 
Q 24.46875 -20.796875 20.265625 -20.09375 
Q 16.0625 -19.390625 12.109375 -17.921875 
L 12.109375 -9.1875 
Q 16.0625 -11.328125 19.921875 -12.34375 
Q 23.78125 -13.375 27.78125 -13.375 
Q 36.625 -13.375 41.015625 -8.765625 
Q 45.40625 -4.15625 45.40625 5.171875 
L 45.40625 9.625 
Q 42.625 4.78125 38.28125 2.390625 
Q 33.9375 0 27.875 0 
Q 17.828125 0 11.671875 7.65625 
Q 5.515625 15.328125 5.515625 27.984375 
Q 5.515625 40.671875 11.671875 48.328125 
Q 17.828125 56 27.875 56 
Q 33.9375 56 38.28125 53.609375 
Q 42.625 51.21875 45.40625 46.390625 
L 45.40625 54.6875 
L 54.390625 54.6875 
z
" id="DejaVuSans-103"/>
      <path d="M 8.5 21.578125 
L 8.5 54.6875 
L 17.484375 54.6875 
L 17.484375 21.921875 
Q 17.484375 14.15625 20.5 10.265625 
Q 23.53125 6.390625 29.59375 6.390625 
Q 36.859375 6.390625 41.078125 11.03125 
Q 45.3125 15.671875 45.3125 23.6875 
L 45.3125 54.6875 
L 54.296875 54.6875 
L 54.296875 0 
L 45.3125 0 
L 45.3125 8.40625 
Q 42.046875 3.421875 37.71875 1 
Q 33.40625 -1.421875 27.6875 -1.421875 
Q 18.265625 -1.421875 13.375 4.4375 
Q 8.5 10.296875 8.5 21.578125 
z
M 31.109375 56 
z
" id="DejaVuSans-117"/>
      <path d="M 2.984375 54.6875 
L 12.5 54.6875 
L 29.59375 8.796875 
L 46.6875 54.6875 
L 56.203125 54.6875 
L 35.6875 0 
L 23.484375 0 
z
" id="DejaVuSans-118"/>
     </defs>
     <use xlink:href="#DejaVuSans-77"/>
     <use x="86.279297" xlink:href="#DejaVuSans-111"/>
     <use x="147.460938" xlink:href="#DejaVuSans-100"/>
     <use x="210.9375" xlink:href="#DejaVuSans-101"/>
     <use x="272.460938" xlink:href="#DejaVuSans-108"/>
     <use x="300.244141" xlink:href="#DejaVuSans-45"/>
     <use x="336.328125" xlink:href="#DejaVuSans-102"/>
     <use x="371.533203" xlink:href="#DejaVuSans-114"/>
     <use x="410.396484" xlink:href="#DejaVuSans-101"/>
     <use x="471.919922" xlink:href="#DejaVuSans-101"/>
     <use x="533.443359" xlink:href="#DejaVuSans-32"/>
     <use x="565.230469" xlink:href="#DejaVuSans-99"/>
     <use x="620.210938" xlink:href="#DejaVuSans-111"/>
     <use x="681.392578" xlink:href="#DejaVuSans-110"/>
     <use x="744.771484" xlink:href="#DejaVuSans-116"/>
     <use x="783.980469" xlink:href="#DejaVuSans-114"/>
     <use x="822.84375" xlink:href="#DejaVuSans-111"/>
     <use x="884.025391" xlink:href="#DejaVuSans-108"/>
     <use x="911.808594" xlink:href="#DejaVuSans-32"/>
     <use x="943.595703" xlink:href="#DejaVuSans-97"/>
     <use x="1004.875" xlink:href="#DejaVuSans-110"/>
     <use x="1068.253906" xlink:href="#DejaVuSans-100"/>
     <use x="1131.730469" xlink:href="#DejaVuSans-32"/>
     <use x="1163.517578" xlink:href="#DejaVuSans-76"/>
     <use x="1219.230469" xlink:href="#DejaVuSans-81"/>
     <use x="1297.941406" xlink:href="#DejaVuSans-82"/>
     <use x="1367.423828" xlink:href="#DejaVuSans-32"/>
     <use x="1399.210938" xlink:href="#DejaVuSans-112"/>
     <use x="1462.6875" xlink:href="#DejaVuSans-108"/>
     <use x="1490.470703" xlink:href="#DejaVuSans-97"/>
     <use x="1551.75" xlink:href="#DejaVuSans-110"/>
     <use x="1615.128906" xlink:href="#DejaVuSans-110"/>
     <use x="1678.507812" xlink:href="#DejaVuSans-105"/>
     <use x="1706.291016" xlink:href="#DejaVuSans-110"/>
     <use x="1769.669922" xlink:href="#DejaVuSans-103"/>
     <use x="1833.146484" xlink:href="#DejaVuSans-32"/>
     <use x="1864.933594" xlink:href="#DejaVuSans-114"/>
     <use x="1903.796875" xlink:href="#DejaVuSans-111"/>
     <use x="1964.978516" xlink:href="#DejaVuSans-98"/>
     <use x="2028.455078" xlink:href="#DejaVuSans-117"/>
     <use x="2091.833984" xlink:href="#DejaVuSans-115"/>
     <use x="2143.933594" xlink:href="#DejaVuSans-116"/>
     <use x="2183.142578" xlink:href="#DejaVuSans-110"/>
     <use x="2246.521484" xlink:href="#DejaVuSans-101"/>
     <use x="2308.044922" xlink:href="#DejaVuSans-115"/>
     <use x="2360.144531" xlink:href="#DejaVuSans-115"/>
     <use x="2412.244141" xlink:href="#DejaVuSans-32"/>
     <use x="2444.03125" xlink:href="#DejaVuSans-116"/>
     <use x="2483.240234" xlink:href="#DejaVuSans-111"/>
     <use x="2544.421875" xlink:href="#DejaVuSans-32"/>
     <use x="2576.208984" xlink:href="#DejaVuSans-105"/>
     <use x="2603.992188" xlink:href="#DejaVuSans-110"/>
     <use x="2667.371094" xlink:href="#DejaVuSans-105"/>
     <use x="2695.154297" xlink:href="#DejaVuSans-116"/>
     <use x="2734.363281" xlink:href="#DejaVuSans-105"/>
     <use x="2762.146484" xlink:href="#DejaVuSans-97"/>
     <use x="2823.425781" xlink:href="#DejaVuSans-108"/>
     <use x="2851.208984" xlink:href="#DejaVuSans-32"/>
     <use x="2882.996094" xlink:href="#DejaVuSans-99"/>
     <use x="2937.976562" xlink:href="#DejaVuSans-111"/>
     <use x="2999.158203" xlink:href="#DejaVuSans-110"/>
     <use x="3062.537109" xlink:href="#DejaVuSans-115"/>
     <use x="3114.636719" xlink:href="#DejaVuSans-105"/>
     <use x="3142.419922" xlink:href="#DejaVuSans-116"/>
     <use x="3181.628906" xlink:href="#DejaVuSans-105"/>
     <use x="3209.412109" xlink:href="#DejaVuSans-111"/>
     <use x="3270.59375" xlink:href="#DejaVuSans-110"/>
     <use x="3333.972656" xlink:href="#DejaVuSans-32"/>
     <use x="3365.759766" xlink:href="#DejaVuSans-118"/>
     <use x="3424.939453" xlink:href="#DejaVuSans-97"/>
     <use x="3486.21875" xlink:href="#DejaVuSans-114"/>
     <use x="3527.332031" xlink:href="#DejaVuSans-105"/>
     <use x="3555.115234" xlink:href="#DejaVuSans-97"/>
     <use x="3616.394531" xlink:href="#DejaVuSans-116"/>
     <use x="3655.603516" xlink:href="#DejaVuSans-105"/>
     <use x="3683.386719" xlink:href="#DejaVuSans-111"/>
     <use x="3744.568359" xlink:href="#DejaVuSans-110"/>
     <use x="3807.947266" xlink:href="#DejaVuSans-115"/>
    </g>
   </g>
   <g id="legend_1">
    <g id="patch_46">
     <path d="M 729.537885 82.88949 
L 852.59976 82.88949 
Q 854.99976 82.88949 854.99976 80.48949 
L 854.99976 28.34199 
Q 854.99976 25.94199 852.59976 25.94199 
L 729.537885 25.94199 
Q 727.137885 25.94199 727.137885 28.34199 
L 727.137885 80.48949 
Q 727.137885 82.88949 729.537885 82.88949 
z
" style="fill:#ffffff;opacity:0.8;stroke:#cccccc;stroke-linejoin:miter;"/>
    </g>
    <g id="patch_47">
     <path d="M 731.937885 39.860115 
L 755.937885 39.860115 
L 755.937885 31.460115 
L 731.937885 31.460115 
z
" style="fill:#1f77b4;"/>
    </g>
    <g id="text_23">
     <!-- LQR cost ratio -->
     <g transform="translate(765.537885 39.860115)scale(0.12 -0.12)">
      <use xlink:href="#DejaVuSans-76"/>
      <use x="55.712891" xlink:href="#DejaVuSans-81"/>
      <use x="134.423828" xlink:href="#DejaVuSans-82"/>
      <use x="203.90625" xlink:href="#DejaVuSans-32"/>
      <use x="235.693359" xlink:href="#DejaVuSans-99"/>
      <use x="290.673828" xlink:href="#DejaVuSans-111"/>
      <use x="351.855469" xlink:href="#DejaVuSans-115"/>
      <use x="403.955078" xlink:href="#DejaVuSans-116"/>
      <use x="443.164062" xlink:href="#DejaVuSans-32"/>
      <use x="474.951172" xlink:href="#DejaVuSans-114"/>
      <use x="516.064453" xlink:href="#DejaVuSans-97"/>
      <use x="577.34375" xlink:href="#DejaVuSans-116"/>
      <use x="616.552734" xlink:href="#DejaVuSans-105"/>
      <use x="644.335938" xlink:href="#DejaVuSans-111"/>
     </g>
    </g>
    <g id="patch_48">
     <path d="M 731.937885 57.980115 
L 755.937885 57.980115 
L 755.937885 49.580115 
L 731.937885 49.580115 
z
" style="fill:#ff7f0e;"/>
    </g>
    <g id="text_24">
     <!-- $x^tQx$ ratio -->
     <g transform="translate(765.537885 57.980115)scale(0.12 -0.12)">
      <defs>
       <path d="M 42.28125 54.6875 
L 40.921875 47.703125 
L 23 47.703125 
L 17.1875 18.015625 
Q 16.890625 16.359375 16.75 15.234375 
Q 16.609375 14.109375 16.609375 13.484375 
Q 16.609375 10.359375 18.484375 8.9375 
Q 20.359375 7.515625 24.515625 7.515625 
L 33.59375 7.515625 
L 32.078125 0 
L 23.484375 0 
Q 15.484375 0 11.546875 3.125 
Q 7.625 6.25 7.625 12.59375 
Q 7.625 13.71875 7.765625 15.0625 
Q 7.90625 16.40625 8.203125 18.015625 
L 14.015625 47.703125 
L 6.390625 47.703125 
L 7.8125 54.6875 
L 15.28125 54.6875 
L 18.3125 70.21875 
L 27.296875 70.21875 
L 24.3125 54.6875 
z
" id="DejaVuSans-Oblique-116"/>
       <path d="M 36.078125 -1.3125 
Q 35.546875 -1.375 34.953125 -1.390625 
Q 34.375 -1.421875 33.203125 -1.421875 
Q 19.53125 -1.421875 11.8125 6.421875 
Q 4.109375 14.265625 4.109375 28.078125 
Q 4.109375 36.234375 7.0625 44.4375 
Q 10.015625 52.640625 15.28125 59.1875 
Q 21.390625 66.703125 29.03125 70.453125 
Q 36.671875 74.21875 45.90625 74.21875 
Q 59.28125 74.21875 66.984375 66.328125 
Q 74.703125 58.453125 74.703125 44.828125 
Q 74.703125 30.125 66.640625 17.921875 
Q 58.59375 5.71875 45.609375 0.6875 
L 55.515625 -12.890625 
L 44.484375 -12.890625 
z
M 45.609375 66.21875 
Q 37.5 66.21875 31.296875 62.28125 
Q 25.09375 58.34375 20.515625 50.296875 
Q 17.578125 45.171875 16.03125 39.40625 
Q 14.5 33.640625 14.5 27.78125 
Q 14.5 17.625 19.359375 12.109375 
Q 24.21875 6.59375 33.109375 6.59375 
Q 41.109375 6.59375 47.375 10.5625 
Q 53.65625 14.546875 58.109375 22.40625 
Q 61.078125 27.6875 62.640625 33.46875 
Q 64.203125 39.265625 64.203125 45.015625 
Q 64.203125 55.125 59.3125 60.671875 
Q 54.4375 66.21875 45.609375 66.21875 
z
" id="DejaVuSans-Oblique-81"/>
      </defs>
      <use transform="translate(0 0.565625)" xlink:href="#DejaVuSans-Oblique-120"/>
      <use transform="translate(63.645833 38.846875)scale(0.7)" xlink:href="#DejaVuSans-Oblique-116"/>
      <use transform="translate(93.826497 0.565625)" xlink:href="#DejaVuSans-Oblique-81"/>
      <use transform="translate(172.537435 0.565625)" xlink:href="#DejaVuSans-Oblique-120"/>
      <use transform="translate(231.717122 0.565625)" xlink:href="#DejaVuSans-32"/>
      <use transform="translate(263.504232 0.565625)" xlink:href="#DejaVuSans-114"/>
      <use transform="translate(304.617513 0.565625)" xlink:href="#DejaVuSans-97"/>
      <use transform="translate(365.89681 0.565625)" xlink:href="#DejaVuSans-116"/>
      <use transform="translate(405.105794 0.565625)" xlink:href="#DejaVuSans-105"/>
      <use transform="translate(432.888997 0.565625)" xlink:href="#DejaVuSans-111"/>
     </g>
    </g>
    <g id="patch_49">
     <path d="M 731.937885 75.593865 
L 755.937885 75.593865 
L 755.937885 67.193865 
L 731.937885 67.193865 
z
" style="fill:#2ca02c;"/>
    </g>
    <g id="text_25">
     <!-- $u^tRu$ ratio -->
     <g transform="translate(765.537885 75.593865)scale(0.12 -0.12)">
      <defs>
       <path d="M 6.6875 21.6875 
L 13.09375 54.6875 
L 22.125 54.6875 
L 15.71875 22.015625 
Q 15.234375 19.625 15.015625 17.921875 
Q 14.796875 16.21875 14.796875 15.09375 
Q 14.796875 10.9375 17.328125 8.65625 
Q 19.875 6.390625 24.515625 6.390625 
Q 31.734375 6.390625 37 11.265625 
Q 42.28125 16.15625 43.890625 24.421875 
L 49.90625 54.6875 
L 58.890625 54.6875 
L 48.296875 0 
L 39.3125 0 
L 41.109375 8.59375 
Q 37.3125 3.8125 32.0625 1.1875 
Q 26.8125 -1.421875 20.90625 -1.421875 
Q 13.71875 -1.421875 9.71875 2.515625 
Q 5.71875 6.453125 5.71875 13.484375 
Q 5.71875 14.9375 5.953125 17.140625 
Q 6.203125 19.34375 6.6875 21.6875 
z
" id="DejaVuSans-Oblique-117"/>
       <path d="M 25.203125 64.796875 
L 20.21875 38.921875 
L 32.90625 38.921875 
Q 40.375 38.921875 44.984375 43.046875 
Q 49.609375 47.171875 49.609375 53.8125 
Q 49.609375 59.125 46.5 61.953125 
Q 43.40625 64.796875 37.59375 64.796875 
z
M 43.3125 35.015625 
Q 46.4375 34.28125 48.515625 31.390625 
Q 50.59375 28.515625 53.328125 19.921875 
L 59.515625 0 
L 49.125 0 
L 43.40625 18.703125 
Q 41.21875 25.921875 38.328125 28.359375 
Q 35.453125 30.8125 29.5 30.8125 
L 18.609375 30.8125 
L 12.59375 0 
L 2.6875 0 
L 16.890625 72.90625 
L 39.109375 72.90625 
Q 49.21875 72.90625 54.609375 68.328125 
Q 60.015625 63.765625 60.015625 55.171875 
Q 60.015625 47.5625 55.421875 41.984375 
Q 50.828125 36.421875 43.3125 35.015625 
z
" id="DejaVuSans-Oblique-82"/>
      </defs>
      <use transform="translate(0 0.565625)" xlink:href="#DejaVuSans-Oblique-117"/>
      <use transform="translate(67.845052 38.846875)scale(0.7)" xlink:href="#DejaVuSans-Oblique-116"/>
      <use transform="translate(98.025716 0.565625)" xlink:href="#DejaVuSans-Oblique-82"/>
      <use transform="translate(167.508138 0.565625)" xlink:href="#DejaVuSans-Oblique-117"/>
      <use transform="translate(230.887044 0.565625)" xlink:href="#DejaVuSans-32"/>
      <use transform="translate(262.674154 0.565625)" xlink:href="#DejaVuSans-114"/>
      <use transform="translate(303.787435 0.565625)" xlink:href="#DejaVuSans-97"/>
      <use transform="translate(365.066732 0.565625)" xlink:href="#DejaVuSans-116"/>
      <use transform="translate(404.275716 0.565625)" xlink:href="#DejaVuSans-105"/>
      <use transform="translate(432.058919 0.565625)" xlink:href="#DejaVuSans-111"/>
     </g>
    </g>
   </g>
  </g>
 </g>
 <defs>
  <clipPath id="pb2085918c9">
   <rect height="302.80402" width="812.48077" x="48.51899" y="19.94199"/>
  </clipPath>
 </defs>
</svg>
