<?xml version="1.0" encoding="utf-8" standalone="no"?>
<!DOCTYPE svg PUBLIC "-//W3C//DTD SVG 1.1//EN"
  "http://www.w3.org/Graphics/SVG/1.1/DTD/svg11.dtd">
<!-- Created with matplotlib (https://matplotlib.org/) -->
<svg height="216pt" version="1.1" viewBox="0 0 1080 216" width="1080pt" xmlns="http://www.w3.org/2000/svg" xmlns:xlink="http://www.w3.org/1999/xlink">
 <metadata>
  <rdf:RDF xmlns:cc="http://creativecommons.org/ns#" xmlns:dc="http://purl.org/dc/elements/1.1/" xmlns:rdf="http://www.w3.org/1999/02/22-rdf-syntax-ns#">
   <cc:Work>
    <dc:type rdf:resource="http://purl.org/dc/dcmitype/StillImage"/>
    <dc:date>2021-12-04T15:38:03.582944</dc:date>
    <dc:format>image/svg+xml</dc:format>
    <dc:creator>
     <cc:Agent>
      <dc:title>Matplotlib v3.3.2, https://matplotlib.org/</dc:title>
     </cc:Agent>
    </dc:creator>
   </cc:Work>
  </rdf:RDF>
 </metadata>
 <defs>
  <style type="text/css">*{stroke-linecap:butt;stroke-linejoin:round;}</style>
 </defs>
 <g id="figure_1">
  <g id="patch_1">
   <path d="M 0 216 
L 1080 216 
L 1080 0 
L 0 0 
z
" style="fill:#ffffff;"/>
  </g>
  <g id="axes_1">
   <g id="patch_2">
    <path d="M 135 192.24 
L 972 192.24 
L 972 25.92 
L 135 25.92 
z
" style="fill:#ffffff;"/>
   </g>
   <g id="matplotlib.axis_1">
    <g id="xtick_1">
     <g id="line2d_1">
      <defs>
       <path d="M 0 0 
L 0 3.5 
" id="m905943bb03" style="stroke:#000000;stroke-width:0.8;"/>
      </defs>
      <g>
       <use style="stroke:#000000;stroke-width:0.8;" x="173.045455" xlink:href="#m905943bb03" y="192.24"/>
      </g>
     </g>
     <g id="text_1">
      <!-- 0 -->
      <g transform="translate(166.682955 214.436875)scale(0.2 -0.2)">
       <defs>
        <path d="M 31.78125 66.40625 
Q 24.171875 66.40625 20.328125 58.90625 
Q 16.5 51.421875 16.5 36.375 
Q 16.5 21.390625 20.328125 13.890625 
Q 24.171875 6.390625 31.78125 6.390625 
Q 39.453125 6.390625 43.28125 13.890625 
Q 47.125 21.390625 47.125 36.375 
Q 47.125 51.421875 43.28125 58.90625 
Q 39.453125 66.40625 31.78125 66.40625 
z
M 31.78125 74.21875 
Q 44.046875 74.21875 50.515625 64.515625 
Q 56.984375 54.828125 56.984375 36.375 
Q 56.984375 17.96875 50.515625 8.265625 
Q 44.046875 -1.421875 31.78125 -1.421875 
Q 19.53125 -1.421875 13.0625 8.265625 
Q 6.59375 17.96875 6.59375 36.375 
Q 6.59375 54.828125 13.0625 64.515625 
Q 19.53125 74.21875 31.78125 74.21875 
z
" id="DejaVuSans-48"/>
       </defs>
       <use xlink:href="#DejaVuSans-48"/>
      </g>
     </g>
    </g>
    <g id="xtick_2">
     <g id="line2d_2">
      <g>
       <use style="stroke:#000000;stroke-width:0.8;" x="325.257715" xlink:href="#m905943bb03" y="192.24"/>
      </g>
     </g>
     <g id="text_2">
      <!-- 1000 -->
      <g transform="translate(299.807715 214.436875)scale(0.2 -0.2)">
       <defs>
        <path d="M 12.40625 8.296875 
L 28.515625 8.296875 
L 28.515625 63.921875 
L 10.984375 60.40625 
L 10.984375 69.390625 
L 28.421875 72.90625 
L 38.28125 72.90625 
L 38.28125 8.296875 
L 54.390625 8.296875 
L 54.390625 0 
L 12.40625 0 
z
" id="DejaVuSans-49"/>
       </defs>
       <use xlink:href="#DejaVuSans-49"/>
       <use x="63.623047" xlink:href="#DejaVuSans-48"/>
       <use x="127.246094" xlink:href="#DejaVuSans-48"/>
       <use x="190.869141" xlink:href="#DejaVuSans-48"/>
      </g>
     </g>
    </g>
    <g id="xtick_3">
     <g id="line2d_3">
      <g>
       <use style="stroke:#000000;stroke-width:0.8;" x="477.469976" xlink:href="#m905943bb03" y="192.24"/>
      </g>
     </g>
     <g id="text_3">
      <!-- 2000 -->
      <g transform="translate(452.019976 214.436875)scale(0.2 -0.2)">
       <defs>
        <path d="M 19.1875 8.296875 
L 53.609375 8.296875 
L 53.609375 0 
L 7.328125 0 
L 7.328125 8.296875 
Q 12.9375 14.109375 22.625 23.890625 
Q 32.328125 33.6875 34.8125 36.53125 
Q 39.546875 41.84375 41.421875 45.53125 
Q 43.3125 49.21875 43.3125 52.78125 
Q 43.3125 58.59375 39.234375 62.25 
Q 35.15625 65.921875 28.609375 65.921875 
Q 23.96875 65.921875 18.8125 64.3125 
Q 13.671875 62.703125 7.8125 59.421875 
L 7.8125 69.390625 
Q 13.765625 71.78125 18.9375 73 
Q 24.125 74.21875 28.421875 74.21875 
Q 39.75 74.21875 46.484375 68.546875 
Q 53.21875 62.890625 53.21875 53.421875 
Q 53.21875 48.921875 51.53125 44.890625 
Q 49.859375 40.875 45.40625 35.40625 
Q 44.1875 33.984375 37.640625 27.21875 
Q 31.109375 20.453125 19.1875 8.296875 
z
" id="DejaVuSans-50"/>
       </defs>
       <use xlink:href="#DejaVuSans-50"/>
       <use x="63.623047" xlink:href="#DejaVuSans-48"/>
       <use x="127.246094" xlink:href="#DejaVuSans-48"/>
       <use x="190.869141" xlink:href="#DejaVuSans-48"/>
      </g>
     </g>
    </g>
    <g id="xtick_4">
     <g id="line2d_4">
      <g>
       <use style="stroke:#000000;stroke-width:0.8;" x="629.682236" xlink:href="#m905943bb03" y="192.24"/>
      </g>
     </g>
     <g id="text_4">
      <!-- 3000 -->
      <g transform="translate(604.232236 214.436875)scale(0.2 -0.2)">
       <defs>
        <path d="M 40.578125 39.3125 
Q 47.65625 37.796875 51.625 33 
Q 55.609375 28.21875 55.609375 21.1875 
Q 55.609375 10.40625 48.1875 4.484375 
Q 40.765625 -1.421875 27.09375 -1.421875 
Q 22.515625 -1.421875 17.65625 -0.515625 
Q 12.796875 0.390625 7.625 2.203125 
L 7.625 11.71875 
Q 11.71875 9.328125 16.59375 8.109375 
Q 21.484375 6.890625 26.8125 6.890625 
Q 36.078125 6.890625 40.9375 10.546875 
Q 45.796875 14.203125 45.796875 21.1875 
Q 45.796875 27.640625 41.28125 31.265625 
Q 36.765625 34.90625 28.71875 34.90625 
L 20.21875 34.90625 
L 20.21875 43.015625 
L 29.109375 43.015625 
Q 36.375 43.015625 40.234375 45.921875 
Q 44.09375 48.828125 44.09375 54.296875 
Q 44.09375 59.90625 40.109375 62.90625 
Q 36.140625 65.921875 28.71875 65.921875 
Q 24.65625 65.921875 20.015625 65.03125 
Q 15.375 64.15625 9.8125 62.3125 
L 9.8125 71.09375 
Q 15.4375 72.65625 20.34375 73.4375 
Q 25.25 74.21875 29.59375 74.21875 
Q 40.828125 74.21875 47.359375 69.109375 
Q 53.90625 64.015625 53.90625 55.328125 
Q 53.90625 49.265625 50.4375 45.09375 
Q 46.96875 40.921875 40.578125 39.3125 
z
" id="DejaVuSans-51"/>
       </defs>
       <use xlink:href="#DejaVuSans-51"/>
       <use x="63.623047" xlink:href="#DejaVuSans-48"/>
       <use x="127.246094" xlink:href="#DejaVuSans-48"/>
       <use x="190.869141" xlink:href="#DejaVuSans-48"/>
      </g>
     </g>
    </g>
    <g id="xtick_5">
     <g id="line2d_5">
      <g>
       <use style="stroke:#000000;stroke-width:0.8;" x="781.894497" xlink:href="#m905943bb03" y="192.24"/>
      </g>
     </g>
     <g id="text_5">
      <!-- 4000 -->
      <g transform="translate(756.444497 214.436875)scale(0.2 -0.2)">
       <defs>
        <path d="M 37.796875 64.3125 
L 12.890625 25.390625 
L 37.796875 25.390625 
z
M 35.203125 72.90625 
L 47.609375 72.90625 
L 47.609375 25.390625 
L 58.015625 25.390625 
L 58.015625 17.1875 
L 47.609375 17.1875 
L 47.609375 0 
L 37.796875 0 
L 37.796875 17.1875 
L 4.890625 17.1875 
L 4.890625 26.703125 
z
" id="DejaVuSans-52"/>
       </defs>
       <use xlink:href="#DejaVuSans-52"/>
       <use x="63.623047" xlink:href="#DejaVuSans-48"/>
       <use x="127.246094" xlink:href="#DejaVuSans-48"/>
       <use x="190.869141" xlink:href="#DejaVuSans-48"/>
      </g>
     </g>
    </g>
    <g id="xtick_6">
     <g id="line2d_6">
      <g>
       <use style="stroke:#000000;stroke-width:0.8;" x="934.106758" xlink:href="#m905943bb03" y="192.24"/>
      </g>
     </g>
     <g id="text_6">
      <!-- 5000 -->
      <g transform="translate(908.656758 214.436875)scale(0.2 -0.2)">
       <defs>
        <path d="M 10.796875 72.90625 
L 49.515625 72.90625 
L 49.515625 64.59375 
L 19.828125 64.59375 
L 19.828125 46.734375 
Q 21.96875 47.46875 24.109375 47.828125 
Q 26.265625 48.1875 28.421875 48.1875 
Q 40.625 48.1875 47.75 41.5 
Q 54.890625 34.8125 54.890625 23.390625 
Q 54.890625 11.625 47.5625 5.09375 
Q 40.234375 -1.421875 26.90625 -1.421875 
Q 22.3125 -1.421875 17.546875 -0.640625 
Q 12.796875 0.140625 7.71875 1.703125 
L 7.71875 11.625 
Q 12.109375 9.234375 16.796875 8.0625 
Q 21.484375 6.890625 26.703125 6.890625 
Q 35.15625 6.890625 40.078125 11.328125 
Q 45.015625 15.765625 45.015625 23.390625 
Q 45.015625 31 40.078125 35.4375 
Q 35.15625 39.890625 26.703125 39.890625 
Q 22.75 39.890625 18.8125 39.015625 
Q 14.890625 38.140625 10.796875 36.28125 
z
" id="DejaVuSans-53"/>
       </defs>
       <use xlink:href="#DejaVuSans-53"/>
       <use x="63.623047" xlink:href="#DejaVuSans-48"/>
       <use x="127.246094" xlink:href="#DejaVuSans-48"/>
       <use x="190.869141" xlink:href="#DejaVuSans-48"/>
      </g>
     </g>
    </g>
    <g id="text_7">
     <!-- Time [s] -->
     <g transform="translate(512.842188 237.793125)scale(0.2 -0.2)">
      <defs>
       <path d="M -0.296875 72.90625 
L 61.375 72.90625 
L 61.375 64.59375 
L 35.5 64.59375 
L 35.5 0 
L 25.59375 0 
L 25.59375 64.59375 
L -0.296875 64.59375 
z
" id="DejaVuSans-84"/>
       <path d="M 9.421875 54.6875 
L 18.40625 54.6875 
L 18.40625 0 
L 9.421875 0 
z
M 9.421875 75.984375 
L 18.40625 75.984375 
L 18.40625 64.59375 
L 9.421875 64.59375 
z
" id="DejaVuSans-105"/>
       <path d="M 52 44.1875 
Q 55.375 50.25 60.0625 53.125 
Q 64.75 56 71.09375 56 
Q 79.640625 56 84.28125 50.015625 
Q 88.921875 44.046875 88.921875 33.015625 
L 88.921875 0 
L 79.890625 0 
L 79.890625 32.71875 
Q 79.890625 40.578125 77.09375 44.375 
Q 74.3125 48.1875 68.609375 48.1875 
Q 61.625 48.1875 57.5625 43.546875 
Q 53.515625 38.921875 53.515625 30.90625 
L 53.515625 0 
L 44.484375 0 
L 44.484375 32.71875 
Q 44.484375 40.625 41.703125 44.40625 
Q 38.921875 48.1875 33.109375 48.1875 
Q 26.21875 48.1875 22.15625 43.53125 
Q 18.109375 38.875 18.109375 30.90625 
L 18.109375 0 
L 9.078125 0 
L 9.078125 54.6875 
L 18.109375 54.6875 
L 18.109375 46.1875 
Q 21.1875 51.21875 25.484375 53.609375 
Q 29.78125 56 35.6875 56 
Q 41.65625 56 45.828125 52.96875 
Q 50 49.953125 52 44.1875 
z
" id="DejaVuSans-109"/>
       <path d="M 56.203125 29.59375 
L 56.203125 25.203125 
L 14.890625 25.203125 
Q 15.484375 15.921875 20.484375 11.0625 
Q 25.484375 6.203125 34.421875 6.203125 
Q 39.59375 6.203125 44.453125 7.46875 
Q 49.3125 8.734375 54.109375 11.28125 
L 54.109375 2.78125 
Q 49.265625 0.734375 44.1875 -0.34375 
Q 39.109375 -1.421875 33.890625 -1.421875 
Q 20.796875 -1.421875 13.15625 6.1875 
Q 5.515625 13.8125 5.515625 26.8125 
Q 5.515625 40.234375 12.765625 48.109375 
Q 20.015625 56 32.328125 56 
Q 43.359375 56 49.78125 48.890625 
Q 56.203125 41.796875 56.203125 29.59375 
z
M 47.21875 32.234375 
Q 47.125 39.59375 43.09375 43.984375 
Q 39.0625 48.390625 32.421875 48.390625 
Q 24.90625 48.390625 20.390625 44.140625 
Q 15.875 39.890625 15.1875 32.171875 
z
" id="DejaVuSans-101"/>
       <path id="DejaVuSans-32"/>
       <path d="M 8.59375 75.984375 
L 29.296875 75.984375 
L 29.296875 69 
L 17.578125 69 
L 17.578125 -6.203125 
L 29.296875 -6.203125 
L 29.296875 -13.1875 
L 8.59375 -13.1875 
z
" id="DejaVuSans-91"/>
       <path d="M 44.28125 53.078125 
L 44.28125 44.578125 
Q 40.484375 46.53125 36.375 47.5 
Q 32.28125 48.484375 27.875 48.484375 
Q 21.1875 48.484375 17.84375 46.4375 
Q 14.5 44.390625 14.5 40.28125 
Q 14.5 37.15625 16.890625 35.375 
Q 19.28125 33.59375 26.515625 31.984375 
L 29.59375 31.296875 
Q 39.15625 29.25 43.1875 25.515625 
Q 47.21875 21.78125 47.21875 15.09375 
Q 47.21875 7.46875 41.1875 3.015625 
Q 35.15625 -1.421875 24.609375 -1.421875 
Q 20.21875 -1.421875 15.453125 -0.5625 
Q 10.6875 0.296875 5.421875 2 
L 5.421875 11.28125 
Q 10.40625 8.6875 15.234375 7.390625 
Q 20.0625 6.109375 24.8125 6.109375 
Q 31.15625 6.109375 34.5625 8.28125 
Q 37.984375 10.453125 37.984375 14.40625 
Q 37.984375 18.0625 35.515625 20.015625 
Q 33.0625 21.96875 24.703125 23.78125 
L 21.578125 24.515625 
Q 13.234375 26.265625 9.515625 29.90625 
Q 5.8125 33.546875 5.8125 39.890625 
Q 5.8125 47.609375 11.28125 51.796875 
Q 16.75 56 26.8125 56 
Q 31.78125 56 36.171875 55.265625 
Q 40.578125 54.546875 44.28125 53.078125 
z
" id="DejaVuSans-115"/>
       <path d="M 30.421875 75.984375 
L 30.421875 -13.1875 
L 9.71875 -13.1875 
L 9.71875 -6.203125 
L 21.390625 -6.203125 
L 21.390625 69 
L 9.71875 69 
L 9.71875 75.984375 
z
" id="DejaVuSans-93"/>
      </defs>
      <use xlink:href="#DejaVuSans-84"/>
      <use x="57.958984" xlink:href="#DejaVuSans-105"/>
      <use x="85.742188" xlink:href="#DejaVuSans-109"/>
      <use x="183.154297" xlink:href="#DejaVuSans-101"/>
      <use x="244.677734" xlink:href="#DejaVuSans-32"/>
      <use x="276.464844" xlink:href="#DejaVuSans-91"/>
      <use x="315.478516" xlink:href="#DejaVuSans-115"/>
      <use x="367.578125" xlink:href="#DejaVuSans-93"/>
     </g>
    </g>
   </g>
   <g id="matplotlib.axis_2">
    <g id="ytick_1">
     <g id="line2d_7">
      <defs>
       <path d="M 0 0 
L -3.5 0 
" id="m450775b8ac" style="stroke:#000000;stroke-width:0.8;"/>
      </defs>
      <g>
       <use style="stroke:#000000;stroke-width:0.8;" x="135" xlink:href="#m450775b8ac" y="151.08"/>
      </g>
     </g>
     <g id="text_8">
      <!-- −100 -->
      <g transform="translate(73.065625 158.678437)scale(0.2 -0.2)">
       <defs>
        <path d="M 10.59375 35.5 
L 73.1875 35.5 
L 73.1875 27.203125 
L 10.59375 27.203125 
z
" id="DejaVuSans-8722"/>
       </defs>
       <use xlink:href="#DejaVuSans-8722"/>
       <use x="83.789062" xlink:href="#DejaVuSans-49"/>
       <use x="147.412109" xlink:href="#DejaVuSans-48"/>
       <use x="211.035156" xlink:href="#DejaVuSans-48"/>
      </g>
     </g>
    </g>
    <g id="ytick_2">
     <g id="line2d_8">
      <g>
       <use style="stroke:#000000;stroke-width:0.8;" x="135" xlink:href="#m450775b8ac" y="109.08"/>
      </g>
     </g>
     <g id="text_9">
      <!-- 0 -->
      <g transform="translate(115.275 116.678437)scale(0.2 -0.2)">
       <use xlink:href="#DejaVuSans-48"/>
      </g>
     </g>
    </g>
    <g id="ytick_3">
     <g id="line2d_9">
      <g>
       <use style="stroke:#000000;stroke-width:0.8;" x="135" xlink:href="#m450775b8ac" y="67.08"/>
      </g>
     </g>
     <g id="text_10">
      <!-- 100 -->
      <g transform="translate(89.825 74.678437)scale(0.2 -0.2)">
       <use xlink:href="#DejaVuSans-49"/>
       <use x="63.623047" xlink:href="#DejaVuSans-48"/>
       <use x="127.246094" xlink:href="#DejaVuSans-48"/>
      </g>
     </g>
    </g>
    <g id="text_11">
     <!-- Deg -->
     <g transform="translate(64.90625 129.281562)rotate(-90)scale(0.2 -0.2)">
      <defs>
       <path d="M 19.671875 64.796875 
L 19.671875 8.109375 
L 31.59375 8.109375 
Q 46.6875 8.109375 53.6875 14.9375 
Q 60.6875 21.78125 60.6875 36.53125 
Q 60.6875 51.171875 53.6875 57.984375 
Q 46.6875 64.796875 31.59375 64.796875 
z
M 9.8125 72.90625 
L 30.078125 72.90625 
Q 51.265625 72.90625 61.171875 64.09375 
Q 71.09375 55.28125 71.09375 36.53125 
Q 71.09375 17.671875 61.125 8.828125 
Q 51.171875 0 30.078125 0 
L 9.8125 0 
z
" id="DejaVuSans-68"/>
       <path d="M 45.40625 27.984375 
Q 45.40625 37.75 41.375 43.109375 
Q 37.359375 48.484375 30.078125 48.484375 
Q 22.859375 48.484375 18.828125 43.109375 
Q 14.796875 37.75 14.796875 27.984375 
Q 14.796875 18.265625 18.828125 12.890625 
Q 22.859375 7.515625 30.078125 7.515625 
Q 37.359375 7.515625 41.375 12.890625 
Q 45.40625 18.265625 45.40625 27.984375 
z
M 54.390625 6.78125 
Q 54.390625 -7.171875 48.1875 -13.984375 
Q 42 -20.796875 29.203125 -20.796875 
Q 24.46875 -20.796875 20.265625 -20.09375 
Q 16.0625 -19.390625 12.109375 -17.921875 
L 12.109375 -9.1875 
Q 16.0625 -11.328125 19.921875 -12.34375 
Q 23.78125 -13.375 27.78125 -13.375 
Q 36.625 -13.375 41.015625 -8.765625 
Q 45.40625 -4.15625 45.40625 5.171875 
L 45.40625 9.625 
Q 42.625 4.78125 38.28125 2.390625 
Q 33.9375 0 27.875 0 
Q 17.828125 0 11.671875 7.65625 
Q 5.515625 15.328125 5.515625 27.984375 
Q 5.515625 40.671875 11.671875 48.328125 
Q 17.828125 56 27.875 56 
Q 33.9375 56 38.28125 53.609375 
Q 42.625 51.21875 45.40625 46.390625 
L 45.40625 54.6875 
L 54.390625 54.6875 
z
" id="DejaVuSans-103"/>
      </defs>
      <use xlink:href="#DejaVuSans-68"/>
      <use x="77.001953" xlink:href="#DejaVuSans-101"/>
      <use x="138.525391" xlink:href="#DejaVuSans-103"/>
     </g>
    </g>
   </g>
   <g id="line2d_10">
    <path clip-path="url(#p4e029115fd)" d="M 173.045455 82.152157 
L 178.981733 67.579104 
L 182.330402 59.936288 
L 185.070223 54.208036 
L 187.505619 49.620659 
L 189.636591 46.061742 
L 191.61535 43.181727 
L 193.441897 40.916816 
L 195.116232 39.193307 
L 196.638355 37.932674 
L 198.008265 37.055738 
L 199.378176 36.428785 
L 200.748086 36.05615 
L 201.965784 35.940858 
L 203.183482 36.030053 
L 204.40118 36.324028 
L 205.771091 36.898762 
L 207.141001 37.729728 
L 208.510911 38.813339 
L 210.033034 40.307552 
L 211.707369 42.293689 
L 213.381704 44.624404 
L 215.208251 47.539363 
L 217.18701 51.105706 
L 219.470194 55.699316 
L 222.057802 61.444393 
L 225.102048 68.795221 
L 229.059566 79.005403 
L 239.562212 106.440253 
L 242.606458 113.608893 
L 245.194066 119.163577 
L 247.47725 123.570422 
L 249.608222 127.211258 
L 251.586981 130.147672 
L 253.413528 132.454949 
L 255.087863 134.215583 
L 256.609986 135.514047 
L 258.132108 136.520141 
L 259.502019 137.173818 
L 260.871929 137.588912 
L 262.241839 137.766937 
L 263.61175 137.710902 
L 264.98166 137.425285 
L 266.35157 136.916007 
L 267.873693 136.096774 
L 269.395816 135.022486 
L 271.07015 133.562901 
L 272.896698 131.662904 
L 274.875457 129.277202 
L 277.158641 126.157059 
L 279.746249 122.23365 
L 283.094919 116.726444 
L 293.597565 99.125604 
L 296.185173 95.362151 
L 298.468357 92.412965 
L 300.447117 90.191661 
L 302.273664 88.451292 
L 303.947999 87.139987 
L 305.622334 86.117605 
L 307.144456 85.450432 
L 308.666579 85.041344 
L 310.036489 84.898638 
L 311.406399 84.9723 
L 312.77631 85.263437 
L 314.14622 85.77163 
L 315.668343 86.588446 
L 317.190465 87.66594 
L 318.8648 89.143692 
L 320.539135 90.915609 
L 322.365682 93.165564 
L 324.344442 95.948479 
L 326.627626 99.559397 
L 329.215234 104.091906 
L 332.411691 110.185175 
L 337.130272 119.736945 
L 342.914337 131.347557 
L 345.958583 136.970744 
L 348.546191 141.291991 
L 350.677163 144.450908 
L 352.655922 147.008114 
L 354.482469 149.011537 
L 356.156804 150.522543 
L 357.678927 151.610132 
L 359.201049 152.413398 
L 360.57096 152.885558 
L 361.94087 153.114758 
L 363.31078 153.097401 
L 364.680691 152.831472 
L 366.050601 152.316553 
L 367.420511 151.553838 
L 368.790422 150.546125 
L 370.312544 149.144504 
L 371.986879 147.269676 
L 373.661214 145.059918 
L 375.487761 142.288107 
L 377.466521 138.890907 
L 379.749704 134.512866 
L 382.337313 129.043214 
L 385.381558 122.068383 
L 389.795714 111.324743 
L 396.797478 94.283618 
L 399.841723 87.468719 
L 402.429331 82.195906 
L 404.712515 78.043295 
L 406.691275 74.884845 
L 408.517822 72.372554 
L 410.192157 70.436453 
L 411.714279 68.99848 
L 413.08419 67.977674 
L 414.4541 67.223933 
L 415.671798 66.78318 
L 416.889496 66.561625 
L 418.107194 66.561524 
L 419.324892 66.7841 
L 420.54259 67.229536 
L 421.760288 67.896978 
L 423.130199 68.910824 
L 424.500109 70.198988 
L 426.022232 71.944838 
L 427.696567 74.235665 
L 429.523114 77.157784 
L 431.501873 80.791552 
L 433.632845 85.205216 
L 435.916029 90.447626 
L 438.655849 97.332984 
L 441.852307 105.999636 
L 446.570887 119.528109 
L 453.572651 139.573588 
L 456.921321 148.461591 
L 459.661141 155.133535 
L 462.096537 160.497761 
L 464.227509 164.689252 
L 466.206269 168.12037 
L 468.032816 170.867119 
L 469.707151 173.013984 
L 471.381485 174.794822 
L 472.903608 176.089882 
L 474.273518 176.988982 
L 475.643429 177.634984 
L 477.013339 178.028819 
L 478.383249 178.17293 
L 479.75316 178.071247 
L 481.12307 177.729144 
L 482.49298 177.153388 
L 484.015103 176.249528 
L 485.537226 175.080204 
L 487.21156 173.50501 
L 489.038108 171.466578 
L 491.016867 168.917093 
L 493.300051 165.590246 
L 495.887659 161.408242 
L 499.084117 155.797745 
L 504.411546 145.911056 
L 509.586763 136.470269 
L 512.78322 131.084153 
L 515.523041 126.891875 
L 517.958437 123.567597 
L 520.089409 121.008667 
L 522.068168 118.947023 
L 524.046928 117.201812 
L 525.873475 115.878113 
L 527.700022 114.831605 
L 529.374357 114.113358 
L 531.048692 113.620227 
L 532.723026 113.34399 
L 534.549574 113.27705 
L 536.376121 113.43737 
L 538.35488 113.842872 
L 540.485852 114.514336 
L 542.921248 115.524928 
L 545.965493 117.047241 
L 555.554866 122.056914 
L 557.990262 122.971413 
L 560.121233 123.53197 
L 562.099993 123.811287 
L 563.92654 123.834618 
L 565.600875 123.638957 
L 567.27521 123.220886 
L 568.949544 122.568693 
L 570.623879 121.673421 
L 572.298214 120.529003 
L 574.124761 118.992873 
L 575.951308 117.156828 
L 577.930068 114.834764 
L 580.061039 111.960078 
L 582.344223 108.474782 
L 584.77962 104.336658 
L 587.51944 99.233463 
L 590.86811 92.494372 
L 595.891115 81.804493 
L 601.67518 69.611907 
L 604.871638 63.403105 
L 607.459246 58.858045 
L 609.590218 55.528389 
L 611.568977 52.828664 
L 613.395525 50.71219 
L 615.069859 49.11753 
L 616.591982 47.97418 
L 617.961892 47.207471 
L 619.331803 46.69916 
L 620.549501 46.470849 
L 621.767199 46.457872 
L 622.984897 46.664021 
L 624.202595 47.092118 
L 625.420293 47.743993 
L 626.790203 48.745812 
L 628.160114 50.031467 
L 629.682236 51.790327 
L 631.204359 53.891839 
L 632.878694 56.589983 
L 634.705241 59.979335 
L 636.684 64.150446 
L 638.814972 69.183542 
L 641.250368 75.556981 
L 643.990189 83.410618 
L 647.186646 93.298413 
L 651.600802 107.773092 
L 659.820264 134.862573 
L 663.016722 144.581905 
L 665.756542 152.218402 
L 668.039726 157.969089 
L 670.170698 162.753523 
L 672.149457 166.637055 
L 673.823792 169.469437 
L 675.498127 171.861774 
L 677.02025 173.638547 
L 678.39016 174.903251 
L 679.607858 175.755626 
L 680.825556 176.348285 
L 682.043254 176.678599 
L 683.10874 176.751177 
L 684.174226 176.621351 
L 685.239712 176.289413 
L 686.45741 175.663792 
L 687.675108 174.777825 
L 689.045018 173.474275 
L 690.414928 171.852162 
L 691.937051 169.686161 
L 693.611386 166.877131 
L 695.437933 163.327519 
L 697.416692 158.946777 
L 699.547664 153.657917 
L 701.98306 146.968734 
L 704.722881 138.747185 
L 708.071551 127.925881 
L 712.790131 111.808554 
L 720.552956 85.262143 
L 724.053838 74.134513 
L 726.945871 65.655741 
L 729.533479 58.746894 
L 731.816663 53.256581 
L 733.947635 48.691204 
L 735.926394 44.96413 
L 737.752941 41.978727 
L 739.427276 39.63491 
L 741.101611 37.671404 
L 742.623734 36.217405 
L 744.145856 35.077166 
L 745.515767 34.316249 
L 746.885677 33.802452 
L 748.255587 33.530361 
L 749.625498 33.493298 
L 750.995408 33.683395 
L 752.365319 34.091656 
L 753.887441 34.788909 
L 755.409564 35.727929 
L 757.083899 37.020399 
L 758.910446 38.713562 
L 760.889205 40.844585 
L 763.172389 43.631595 
L 765.91221 47.34673 
L 769.413092 52.498776 
L 780.829011 69.623969 
L 783.873256 73.626554 
L 786.460865 76.684216 
L 788.896261 79.231818 
L 791.179445 81.30698 
L 793.310417 82.959813 
L 795.441388 84.335614 
L 797.57236 85.437945 
L 799.703332 86.276339 
L 801.834303 86.865953 
L 803.965275 87.227126 
L 806.248459 87.389079 
L 808.836067 87.335846 
L 811.880312 87.028653 
L 816.294468 86.320962 
L 821.926322 85.453511 
L 824.970567 85.223126 
L 827.558175 85.255087 
L 829.841359 85.501642 
L 831.972331 85.944672 
L 834.103302 86.613936 
L 836.234274 87.524721 
L 838.365246 88.687191 
L 840.496217 90.106171 
L 842.779401 91.910338 
L 845.062585 94.000461 
L 847.497981 96.528335 
L 850.237802 99.70767 
L 853.282047 103.597509 
L 856.935142 108.643818 
L 863.175844 117.729366 
L 868.351061 125.096541 
L 871.699731 129.48412 
L 874.439552 132.724965 
L 876.874948 135.275898 
L 879.158132 137.341666 
L 881.136891 138.850454 
L 883.11565 140.078668 
L 884.942198 140.950849 
L 886.616532 141.522305 
L 888.290867 141.871193 
L 889.965202 141.995407 
L 891.639537 141.89504 
L 893.313872 141.572392 
L 894.988207 141.031969 
L 896.814754 140.201944 
L 898.641301 139.132266 
L 900.62006 137.71979 
L 902.751032 135.928311 
L 905.186428 133.577841 
L 907.926249 130.612405 
L 911.274919 126.648478 
L 918.12447 118.079157 
L 922.234201 113.163629 
L 925.126234 110.030478 
L 927.561631 107.691791 
L 929.844814 105.803316 
L 931.823574 104.438495 
L 933.650121 103.424888 
L 933.954545 103.280166 
L 933.954545 103.280166 
" style="fill:none;stroke:#1f77b4;stroke-linecap:square;stroke-width:2.5;"/>
   </g>
   <g id="line2d_11">
    <path clip-path="url(#p4e029115fd)" d="M 173.045455 120.388291 
L 175.633063 122.212603 
L 178.068459 123.665464 
L 180.503855 124.87468 
L 183.091464 125.910115 
L 185.679072 126.710598 
L 188.418893 127.330148 
L 191.463138 127.782321 
L 194.811808 128.046458 
L 198.769327 128.126761 
L 204.40118 127.992918 
L 215.208251 127.707669 
L 220.53568 127.822355 
L 225.710897 128.159404 
L 231.494963 128.768547 
L 241.845396 130.145528 
L 248.542736 130.908787 
L 253.56574 131.257231 
L 257.979896 131.345404 
L 262.241839 131.214107 
L 266.655995 130.854558 
L 271.526787 130.224302 
L 277.615278 129.194923 
L 288.878985 127.252719 
L 293.140928 126.768925 
L 296.794022 126.567596 
L 300.142692 126.599576 
L 303.33915 126.852582 
L 306.383395 127.314612 
L 309.42764 128.003989 
L 312.471885 128.925426 
L 315.51613 130.076478 
L 318.712588 131.521303 
L 322.21347 133.357345 
L 326.018776 135.609113 
L 330.737357 138.673713 
L 344.588672 147.863996 
L 348.089554 149.816789 
L 351.133799 151.26258 
L 353.87362 152.318025 
L 356.309016 153.031065 
L 358.744413 153.508534 
L 361.027596 153.72407 
L 363.158568 153.70928 
L 365.28954 153.475524 
L 367.420511 153.01445 
L 369.551483 152.319646 
L 371.682455 151.386725 
L 373.813426 150.213386 
L 376.09661 148.689297 
L 378.379794 146.891575 
L 380.81519 144.678466 
L 383.402799 142.003791 
L 386.142619 138.826597 
L 389.034652 135.114323 
L 392.23111 130.624057 
L 395.731992 125.302516 
L 399.841723 118.624239 
L 405.169152 109.502158 
L 418.259406 86.901531 
L 422.369137 80.342613 
L 426.022232 74.926942 
L 429.218689 70.575821 
L 432.110722 66.991926 
L 434.850543 63.932775 
L 437.438151 61.361599 
L 439.873547 59.234957 
L 442.308944 57.399585 
L 444.592128 55.946556 
L 446.875311 54.752841 
L 449.158495 53.81628 
L 451.441679 53.13236 
L 453.724863 52.694324 
L 456.008047 52.493302 
L 458.291231 52.51846 
L 460.726627 52.780345 
L 463.162023 53.267882 
L 465.749632 54.011759 
L 468.489452 55.026061 
L 471.533698 56.389315 
L 475.03458 58.208678 
L 479.296523 60.691509 
L 485.537226 64.618048 
L 494.669961 70.336489 
L 499.540754 73.107645 
L 503.802697 75.277768 
L 507.760216 77.048204 
L 511.717734 78.572526 
L 515.675253 79.856619 
L 519.784984 80.957912 
L 524.351352 81.949649 
L 530.135418 82.960883 
L 545.05222 85.44628 
L 549.7708 86.53386 
L 554.032743 87.746183 
L 558.142474 89.153236 
L 562.099993 90.742634 
L 566.209724 92.636392 
L 570.471667 94.846734 
L 575.190247 97.549488 
L 580.822101 101.045648 
L 589.802624 106.931652 
L 599.087572 112.934978 
L 605.328275 116.698935 
L 611.112341 119.925905 
L 617.353043 123.143232 
L 626.942416 127.788323 
L 634.553029 131.583522 
L 639.576033 134.339019 
L 643.990189 137.017884 
L 648.09992 139.775334 
L 652.057439 142.693247 
L 656.16717 145.99834 
L 660.581325 149.835016 
L 665.908754 154.772435 
L 679.303433 167.343654 
L 682.956528 170.368431 
L 686.000773 172.602259 
L 688.588381 174.241633 
L 691.023777 175.52754 
L 693.306961 176.476305 
L 695.437933 177.113894 
L 697.416692 177.473649 
L 699.24324 177.594041 
L 701.069787 177.500346 
L 702.896334 177.183176 
L 704.722881 176.634429 
L 706.549428 175.847402 
L 708.375975 174.816896 
L 710.202522 173.539306 
L 712.181282 171.874224 
L 714.160041 169.91677 
L 716.291013 167.484465 
L 718.574197 164.512176 
L 720.857381 161.172655 
L 723.292777 157.22412 
L 726.032597 152.336243 
L 728.92463 146.711768 
L 732.2733 139.682086 
L 736.078607 131.153915 
L 741.101611 119.314556 
L 752.365319 92.581406 
L 756.322837 83.868205 
L 759.671507 77.025456 
L 762.56354 71.593748 
L 765.303361 66.911952 
L 767.738757 63.162595 
L 770.174153 59.824075 
L 772.457337 57.08121 
L 774.588309 54.866145 
L 776.567068 53.109666 
L 778.545827 51.641343 
L 780.524587 50.457296 
L 782.351134 49.61101 
L 784.177681 48.99427 
L 786.004228 48.598203 
L 787.982988 48.405917 
L 789.961747 48.444883 
L 791.940506 48.697894 
L 794.071478 49.188147 
L 796.354662 49.936035 
L 798.94227 51.021578 
L 801.986515 52.557889 
L 805.791822 54.754209 
L 820.708624 63.670994 
L 824.209506 65.353401 
L 827.558175 66.72188 
L 830.906845 67.850815 
L 834.407727 68.794703 
L 838.365246 69.627817 
L 845.214798 70.78729 
L 849.933378 71.698883 
L 853.129835 72.532246 
L 855.869656 73.46495 
L 858.457264 74.583882 
L 860.89266 75.888697 
L 863.175844 77.36439 
L 865.459028 79.109632 
L 867.742212 81.145359 
L 870.025396 83.488188 
L 872.30858 86.149892 
L 874.743976 89.347711 
L 877.179372 92.916396 
L 879.766981 97.106596 
L 882.506801 101.970726 
L 885.551047 107.849898 
L 888.899716 114.818394 
L 893.009447 123.927076 
L 899.554575 139.083699 
L 905.33864 152.270847 
L 908.991735 160.05243 
L 911.883768 165.719981 
L 914.471376 170.318722 
L 916.75456 173.941414 
L 918.885532 176.909061 
L 920.864291 179.274566 
L 922.690838 181.10152 
L 924.365173 182.459776 
L 925.887296 183.421643 
L 927.409418 184.115971 
L 928.779329 184.507227 
L 930.149239 184.673755 
L 931.519149 184.613344 
L 932.88906 184.324833 
L 933.954545 183.942638 
L 933.954545 183.942638 
" style="fill:none;stroke:#ff7f0e;stroke-linecap:square;stroke-width:2.5;"/>
   </g>
   <g id="line2d_12">
    <path clip-path="url(#p4e029115fd)" d="M 173.045455 122.494274 
L 175.176426 121.398679 
L 177.45961 119.974076 
L 179.895006 118.17727 
L 182.482615 115.969521 
L 185.222435 113.319719 
L 188.114468 110.208072 
L 191.310926 106.444117 
L 195.116232 101.608777 
L 200.291449 94.631758 
L 210.489671 80.795087 
L 214.294977 76.041223 
L 217.491435 72.377714 
L 220.383468 69.387036 
L 222.971076 67.013116 
L 225.406472 65.068045 
L 227.689656 63.519531 
L 229.820628 62.328482 
L 231.951599 61.393636 
L 233.930359 60.76221 
L 235.909118 60.363674 
L 237.887878 60.201175 
L 239.866637 60.276147 
L 241.845396 60.588322 
L 243.824156 61.135746 
L 245.802915 61.91482 
L 247.933887 63.006885 
L 250.064858 64.353057 
L 252.348042 66.065438 
L 254.783439 68.183029 
L 257.371047 70.738725 
L 260.110868 73.756621 
L 263.155113 77.440767 
L 266.655995 82.037117 
L 270.917938 88.024125 
L 277.310853 97.448816 
L 285.378103 109.273729 
L 289.640046 115.131385 
L 293.29314 119.783983 
L 296.489598 123.50469 
L 299.381631 126.544943 
L 302.121452 129.108935 
L 304.70906 131.226482 
L 307.144456 132.934899 
L 309.42764 134.276239 
L 311.710824 135.359027 
L 313.841796 136.132566 
L 315.972767 136.675422 
L 318.103739 136.98755 
L 320.234711 137.070571 
L 322.365682 136.92775 
L 324.496654 136.563962 
L 326.779838 135.936337 
L 329.063022 135.072331 
L 331.498418 133.903483 
L 334.086026 132.400176 
L 336.825847 130.539594 
L 339.71788 128.308246 
L 343.06655 125.43178 
L 346.871856 121.86125 
L 351.894861 116.82508 
L 363.462993 105.118912 
L 367.420511 101.49571 
L 370.769181 98.725409 
L 373.813426 96.497865 
L 376.553247 94.765949 
L 379.140855 93.392831 
L 381.576252 92.351271 
L 383.859436 91.607904 
L 386.142619 91.099095 
L 388.273591 90.841538 
L 390.404563 90.797267 
L 392.535534 90.967746 
L 394.666506 91.352533 
L 396.94969 91.9999 
L 399.232874 92.885205 
L 401.66827 94.082917 
L 404.103666 95.529848 
L 406.691275 97.3228 
L 409.583308 99.611303 
L 412.627553 102.306386 
L 416.128435 105.707391 
L 420.390378 110.170903 
L 427.848779 118.378277 
L 433.785057 124.766231 
L 437.742576 128.712642 
L 441.091246 131.749735 
L 444.135491 134.210463 
L 446.875311 136.142617 
L 449.46292 137.695574 
L 451.898316 138.897975 
L 454.1815 139.78497 
L 456.464684 140.431052 
L 458.595655 140.811734 
L 460.726627 140.975178 
L 462.857599 140.920899 
L 464.98857 140.650388 
L 467.119542 140.167068 
L 469.402726 139.419115 
L 471.68591 138.441727 
L 474.121306 137.158678 
L 476.708915 135.540837 
L 479.448735 133.565804 
L 482.49298 131.090024 
L 485.84165 128.075071 
L 489.799169 124.200366 
L 494.974386 118.79217 
L 509.738975 103.162501 
L 514.153131 98.917257 
L 518.110649 95.414113 
L 521.763744 92.471928 
L 525.264626 89.935266 
L 528.613295 87.777637 
L 531.961965 85.885521 
L 535.310635 84.256517 
L 538.659305 82.88439 
L 542.007974 81.7604 
L 545.356644 80.874676 
L 548.705314 80.217581 
L 552.053984 79.780998 
L 555.402653 79.559471 
L 558.751323 79.551141 
L 562.099993 79.758426 
L 565.448662 80.188415 
L 568.64512 80.817417 
L 571.841577 81.67415 
L 574.885823 82.717609 
L 577.930068 84.000371 
L 580.822101 85.45739 
L 583.714134 87.163116 
L 586.606167 89.133269 
L 589.4982 91.382302 
L 592.390233 93.922519 
L 595.282266 96.763187 
L 598.174298 99.909661 
L 601.218544 103.552712 
L 604.415001 107.736756 
L 607.763671 112.497145 
L 611.416765 118.095267 
L 615.526496 124.829186 
L 620.397289 133.262691 
L 636.227364 161.04355 
L 639.728246 166.524944 
L 642.772491 170.877905 
L 645.360099 174.211146 
L 647.795495 176.994944 
L 650.078679 179.259582 
L 652.057439 180.929595 
L 654.036198 182.310209 
L 655.862745 183.314842 
L 657.53708 183.999213 
L 659.211415 184.450385 
L 660.88575 184.662821 
L 662.560085 184.632221 
L 664.082207 184.390947 
L 665.756542 183.889136 
L 667.430877 183.139271 
L 669.105212 182.142312 
L 670.931759 180.775734 
L 672.758306 179.122933 
L 674.737066 177.017554 
L 676.868037 174.396989 
L 679.151221 171.202581 
L 681.586617 167.383325 
L 684.174226 162.900244 
L 687.066259 157.432731 
L 690.414928 150.600101 
L 694.524659 141.668972 
L 701.526423 125.795735 
L 707.462702 112.557803 
L 711.42022 104.266473 
L 714.616678 98.05306 
L 717.508711 92.891024 
L 720.096319 88.693628 
L 722.531715 85.139297 
L 724.814899 82.176485 
L 726.945871 79.745595 
L 729.076843 77.644127 
L 731.055602 75.989689 
L 733.034361 74.61971 
L 735.013121 73.529633 
L 736.839668 72.765349 
L 738.666215 72.224997 
L 740.644974 71.880475 
L 742.623734 71.771341 
L 744.602493 71.879694 
L 746.733465 72.216486 
L 749.016649 72.799809 
L 751.604257 73.693342 
L 754.648502 74.985496 
L 759.062658 77.129078 
L 765.607785 80.300903 
L 768.804243 81.595626 
L 771.544063 82.467239 
L 773.97946 83.010095 
L 776.262643 83.289844 
L 778.393615 83.330245 
L 780.524587 83.142539 
L 782.655558 82.716077 
L 784.78653 82.044344 
L 786.917502 81.125092 
L 789.048473 79.960419 
L 791.331657 78.447633 
L 793.767053 76.546936 
L 796.354662 74.22848 
L 799.246695 71.31704 
L 802.595365 67.604269 
L 807.00952 62.341252 
L 815.533407 52.101651 
L 818.729864 48.644834 
L 821.317473 46.147953 
L 823.600656 44.229255 
L 825.731628 42.721343 
L 827.710388 41.597099 
L 829.536935 40.818353 
L 831.21127 40.339481 
L 832.885604 40.098898 
L 834.407727 40.096827 
L 835.92985 40.309057 
L 837.451972 40.742183 
L 838.974095 41.401649 
L 840.496217 42.291701 
L 842.170552 43.540639 
L 843.844887 45.074432 
L 845.671434 47.072882 
L 847.497981 49.408529 
L 849.476741 52.313584 
L 851.607712 55.866837 
L 853.890896 60.143538 
L 856.326293 65.210702 
L 858.913901 71.121406 
L 861.805934 78.2996 
L 865.154604 87.245932 
L 869.264335 98.922865 
L 876.113886 119.207411 
L 881.897952 136.05931 
L 885.703259 146.473675 
L 888.747504 154.196812 
L 891.487325 160.565895 
L 893.922721 165.690558 
L 896.205905 169.984628 
L 898.336876 173.510504 
L 900.315636 176.342544 
L 902.142183 178.561997 
L 903.816518 180.252764 
L 905.33864 181.49799 
L 906.860763 182.46091 
L 908.230673 183.083782 
L 909.600584 183.474518 
L 910.970494 183.632867 
L 912.340404 183.559464 
L 913.710315 183.255827 
L 915.080225 182.724343 
L 916.450135 181.968257 
L 917.972258 180.869735 
L 919.494381 179.505775 
L 921.168716 177.70841 
L 922.995263 175.406833 
L 924.974022 172.532633 
L 927.104994 169.023355 
L 929.388178 164.826682 
L 931.975786 159.583687 
L 933.954545 155.270077 
L 933.954545 155.270077 
" style="fill:none;stroke:#2ca02c;stroke-linecap:square;stroke-width:2.5;"/>
   </g>
   <g id="line2d_13">
    <path clip-path="url(#p4e029115fd)" d="M 173.045455 49.372559 
L 174.719789 49.688863 
L 176.394124 50.23522 
L 178.068459 51.014056 
L 179.742794 52.026658 
L 181.569341 53.398043 
L 183.395888 55.046333 
L 185.374648 57.140838 
L 187.505619 59.748733 
L 189.636591 62.711556 
L 191.919775 66.264383 
L 194.355171 70.462877 
L 197.094992 75.654531 
L 199.987025 81.620619 
L 203.335694 89.067738 
L 207.141001 98.094464 
L 212.164006 110.627828 
L 224.340986 141.255609 
L 228.146293 150.102861 
L 231.34275 157.011668 
L 234.234783 162.756731 
L 236.822392 167.428996 
L 239.257788 171.379648 
L 241.540972 174.659098 
L 243.671943 177.327635 
L 245.650703 179.451551 
L 247.47725 181.099848 
L 249.303797 182.441497 
L 250.978132 183.397763 
L 252.652467 184.08984 
L 254.174589 184.488805 
L 255.696712 184.668646 
L 257.218835 184.630398 
L 258.740957 184.375997 
L 260.26308 183.908277 
L 261.937415 183.151862 
L 263.61175 182.148009 
L 265.438297 180.779428 
L 267.264844 179.136459 
L 269.243603 177.061916 
L 271.374575 174.505787 
L 273.657759 171.425044 
L 276.245367 167.54879 
L 279.1374 162.797998 
L 282.48607 156.850569 
L 286.748013 148.795041 
L 300.294904 122.809441 
L 303.643574 117.034609 
L 306.687819 112.223674 
L 309.42764 108.318247 
L 311.863036 105.225784 
L 314.14622 102.677698 
L 316.277192 100.623797 
L 318.255951 99.008211 
L 320.234711 97.680944 
L 322.061258 96.715747 
L 323.887805 96.001866 
L 325.714352 95.539036 
L 327.388687 95.333495 
L 329.063022 95.33404 
L 330.889569 95.564521 
L 332.716116 96.027684 
L 334.542663 96.714453 
L 336.521422 97.698333 
L 338.652394 99.019333 
L 340.935578 100.711018 
L 343.370974 102.797335 
L 346.110795 105.44349 
L 349.307252 108.852185 
L 353.416983 113.585523 
L 365.593964 127.849642 
L 368.942634 131.312155 
L 371.834667 133.992987 
L 374.422275 136.102878 
L 376.857672 137.809901 
L 379.140855 139.145121 
L 381.271827 140.147357 
L 383.402799 140.905727 
L 385.381558 141.387113 
L 387.360318 141.652139 
L 389.339077 141.701299 
L 391.317836 141.537239 
L 393.448808 141.127557 
L 395.57978 140.484515 
L 397.862964 139.548997 
L 400.146147 138.37435 
L 402.581544 136.879096 
L 405.321364 134.929414 
L 408.365609 132.477979 
L 411.866491 129.361645 
L 416.280647 125.116751 
L 432.567359 109.147665 
L 436.67709 105.595788 
L 440.482396 102.596828 
L 444.135491 99.993462 
L 447.788585 97.65341 
L 451.746104 95.387831 
L 456.160259 93.132261 
L 461.639901 90.598754 
L 474.577943 84.711666 
L 479.448735 82.180022 
L 484.015103 79.551094 
L 488.733683 76.575704 
L 494.669961 72.548664 
L 504.71597 65.699517 
L 508.521277 63.405951 
L 511.565522 61.816588 
L 514.305343 60.630822 
L 516.740739 59.810657 
L 519.023923 59.271019 
L 521.154895 58.989747 
L 523.285866 58.942093 
L 525.264626 59.121542 
L 527.243385 59.528314 
L 529.222144 60.172131 
L 531.200904 61.060665 
L 533.179663 62.199351 
L 535.158423 63.591239 
L 537.289394 65.373911 
L 539.420366 67.448075 
L 541.70355 69.986565 
L 544.138946 73.04085 
L 546.726554 76.654557 
L 549.618587 81.102507 
L 552.815045 86.453976 
L 556.620351 93.29518 
L 561.94778 103.396989 
L 569.862818 118.399636 
L 573.515912 124.84088 
L 576.560157 129.77671 
L 579.147766 133.578778 
L 581.583162 136.77008 
L 583.714134 139.21825 
L 585.692893 141.179247 
L 587.51944 142.705861 
L 589.345987 143.947445 
L 591.020322 144.826429 
L 592.694657 145.451214 
L 594.21678 145.794906 
L 595.738902 145.922886 
L 597.261025 145.834396 
L 598.783148 145.52994 
L 600.30527 145.011286 
L 601.979605 144.197027 
L 603.65394 143.133077 
L 605.480487 141.696612 
L 607.459246 139.82963 
L 609.438006 137.657749 
L 611.72119 134.801628 
L 614.156586 131.383374 
L 616.896407 127.143631 
L 620.092864 121.776914 
L 624.354807 114.155575 
L 634.096392 96.584132 
L 637.445062 91.09651 
L 640.184882 87.01329 
L 642.620279 83.761853 
L 644.903463 81.084151 
L 646.882222 79.082778 
L 648.860981 77.399683 
L 650.687528 76.143572 
L 652.361863 75.252775 
L 654.036198 74.618048 
L 655.558321 74.267157 
L 657.080443 74.133823 
L 658.602566 74.218804 
L 660.124689 74.521526 
L 661.646811 75.040089 
L 663.321146 75.855935 
L 664.995481 76.922968 
L 666.822028 78.364145 
L 668.800787 80.237365 
L 670.779547 82.416197 
L 673.062731 85.280702 
L 675.498127 88.707878 
L 678.237948 92.95743 
L 681.434405 98.33583 
L 685.696348 105.976601 
L 695.89457 124.445969 
L 699.24324 129.956972 
L 702.135273 134.288938 
L 704.570669 137.561207 
L 706.853853 140.273023 
L 708.984824 142.463307 
L 710.963584 144.182007 
L 712.790131 145.485677 
L 714.616678 146.508093 
L 716.291013 147.192165 
L 717.965348 147.63029 
L 719.639682 147.820512 
L 721.161805 147.77807 
L 722.683928 147.531529 
L 724.358263 147.027186 
L 726.032597 146.282882 
L 727.706932 145.304559 
L 729.533479 143.979183 
L 731.512239 142.252585 
L 733.64321 140.074341 
L 735.926394 137.400995 
L 738.361791 134.199748 
L 741.101611 130.22218 
L 744.298069 125.16803 
L 748.255587 118.461291 
L 755.409564 105.783037 
L 760.889205 96.292325 
L 764.694512 90.144279 
L 767.890969 85.399513 
L 770.63079 81.705063 
L 773.218398 78.57392 
L 775.653794 75.972945 
L 777.936978 73.857933 
L 780.06795 72.177924 
L 782.198922 70.789286 
L 784.177681 69.764566 
L 786.15644 68.996093 
L 787.982988 68.513495 
L 789.809535 68.246417 
L 791.636082 68.191349 
L 793.614841 68.365344 
L 795.593601 68.774816 
L 797.57236 69.410558 
L 799.703332 70.336091 
L 801.986515 71.588477 
L 804.421912 73.199585 
L 807.00952 75.193966 
L 809.749341 77.58669 
L 812.945798 80.68952 
L 816.598893 84.564143 
L 821.16526 89.753695 
L 830.450208 100.756588 
L 836.386486 107.581929 
L 840.800642 112.327883 
L 844.605948 116.105589 
L 848.10683 119.276581 
L 851.4555 122.005527 
L 854.499745 124.209326 
L 857.543991 126.136575 
L 860.436024 127.703778 
L 863.175844 128.947834 
L 865.915665 129.956801 
L 868.655486 130.732068 
L 871.395306 131.27722 
L 874.135127 131.597974 
L 876.874948 131.702127 
L 879.766981 131.587988 
L 882.811226 131.234415 
L 886.007683 130.626311 
L 889.356353 129.756766 
L 893.009447 128.576065 
L 897.271391 126.956718 
L 902.903244 124.559836 
L 913.862527 119.852232 
L 918.12447 118.303508 
L 921.625352 117.259091 
L 924.82181 116.530999 
L 927.866055 116.070069 
L 930.758088 115.865704 
L 933.497909 115.898106 
L 933.954545 115.925733 
L 933.954545 115.925733 
" style="fill:none;stroke:#d62728;stroke-linecap:square;stroke-width:2.5;"/>
   </g>
   <g id="line2d_14">
    <path clip-path="url(#p4e029115fd)" d="M 173.045455 125.803413 
L 175.785275 126.46012 
L 178.525096 126.882205 
L 181.112704 127.053076 
L 183.548101 127.001674 
L 185.983497 126.735502 
L 188.418893 126.246259 
L 190.854289 125.526246 
L 193.289685 124.568501 
L 195.725081 123.366975 
L 198.160478 121.916729 
L 200.595874 120.214157 
L 203.183482 118.12646 
L 205.771091 115.751482 
L 208.510911 112.926532 
L 211.402944 109.605852 
L 214.447189 105.748814 
L 217.643647 101.323981 
L 221.144529 96.078253 
L 225.102048 89.719326 
L 229.820628 81.691061 
L 245.194066 55.158429 
L 248.542736 50.016948 
L 251.434769 45.968295 
L 254.022377 42.72102 
L 256.305561 40.19517 
L 258.436533 38.157639 
L 260.415292 36.566666 
L 262.241839 35.373399 
L 263.916174 34.524668 
L 265.590509 33.920949 
L 267.112632 33.592439 
L 268.634754 33.48 
L 270.156877 33.588782 
L 271.678999 33.92302 
L 273.201122 34.485987 
L 274.723245 35.279956 
L 276.39758 36.421579 
L 278.071914 37.844357 
L 279.898462 39.715417 
L 281.725009 41.915305 
L 283.703768 44.662179 
L 285.83474 48.030759 
L 288.117924 52.092194 
L 290.55332 56.909821 
L 293.140928 62.534052 
L 296.032961 69.369372 
L 299.381631 77.896297 
L 303.33915 88.62039 
L 309.275428 105.439909 
L 316.733829 126.453445 
L 320.691347 136.937915 
L 324.040017 145.187482 
L 326.93205 151.735998 
L 329.519658 157.073237 
L 331.955055 161.600792 
L 334.238239 165.37854 
L 336.36921 168.477426 
L 338.34797 170.974341 
L 340.174517 172.947945 
L 342.001064 174.600907 
L 343.675399 175.834383 
L 345.349734 176.800185 
L 347.024068 177.501817 
L 348.698403 177.944428 
L 350.220526 178.127666 
L 351.894861 178.095737 
L 353.569196 177.828455 
L 355.243531 177.336649 
L 357.070078 176.558231 
L 359.048837 175.449436 
L 361.179809 173.972845 
L 363.462993 172.100418 
L 366.050601 169.665202 
L 368.942634 166.6218 
L 372.443516 162.602516 
L 377.770945 156.101534 
L 385.229346 147.038039 
L 389.186865 142.576413 
L 392.687747 138.954282 
L 395.884204 135.958375 
L 398.928449 133.4004 
L 401.972695 131.13336 
L 405.01694 129.146869 
L 408.061185 127.418817 
L 411.409855 125.777865 
L 415.215161 124.176781 
L 419.933741 122.448708 
L 432.110722 118.101579 
L 436.372665 116.272309 
L 440.482396 114.261951 
L 444.74434 111.920059 
L 449.767344 108.886917 
L 462.096537 101.298339 
L 465.445207 99.574067 
L 468.33724 98.33314 
L 470.924849 97.467496 
L 473.208033 96.927866 
L 475.339004 96.636337 
L 477.469976 96.567604 
L 479.448735 96.71637 
L 481.427495 97.079798 
L 483.406254 97.665071 
L 485.385013 98.476679 
L 487.515985 99.605632 
L 489.646957 100.997019 
L 491.930141 102.772006 
L 494.213324 104.828264 
L 496.800933 107.475019 
L 499.540754 110.605319 
L 502.737211 114.613453 
L 506.69473 119.960312 
L 518.415074 136.058572 
L 521.307107 139.53278 
L 523.894715 142.298326 
L 526.177899 144.411288 
L 528.156659 145.958205 
L 529.983206 147.127617 
L 531.809753 148.029596 
L 533.484088 148.607395 
L 535.00621 148.916498 
L 536.528333 149.012669 
L 538.050456 148.890472 
L 539.572578 148.545892 
L 541.094701 147.97639 
L 542.616823 147.180942 
L 544.291158 146.045658 
L 545.965493 144.640547 
L 547.79204 142.80614 
L 549.7708 140.475075 
L 551.901771 137.583836 
L 554.184955 134.077504 
L 556.620351 129.915565 
L 559.360172 124.78248 
L 562.55663 118.310616 
L 566.970785 108.814657 
L 575.799096 89.701979 
L 578.995554 83.363769 
L 581.735374 78.406359 
L 584.170771 74.460132 
L 586.301742 71.418974 
L 588.280502 68.976857 
L 590.107049 67.07452 
L 591.781384 65.644603 
L 593.303506 64.616112 
L 594.825629 63.854006 
L 596.195539 63.40072 
L 597.565449 63.170943 
L 598.93536 63.166461 
L 600.30527 63.387832 
L 601.67518 63.834378 
L 603.045091 64.50418 
L 604.567213 65.506367 
L 606.089336 66.774152 
L 607.763671 68.465953 
L 609.590218 70.651664 
L 611.568977 73.396846 
L 613.699949 76.757869 
L 615.983133 80.776068 
L 618.570741 85.776693 
L 621.767199 92.468625 
L 626.181354 102.291919 
L 633.791967 119.278543 
L 636.988425 125.846163 
L 639.728246 130.974667 
L 642.01143 134.804191 
L 644.142401 137.955147 
L 646.121161 140.474512 
L 647.947708 142.424355 
L 649.622043 143.875932 
L 651.144165 144.904746 
L 652.514076 145.586561 
L 653.883986 146.03201 
L 655.253896 146.237474 
L 656.623807 146.200609 
L 657.993717 145.920363 
L 659.363627 145.396978 
L 660.733538 144.63199 
L 662.25566 143.502112 
L 663.777783 142.083169 
L 665.452118 140.197575 
L 667.278665 137.767123 
L 669.105212 134.96645 
L 671.236184 131.262473 
L 673.519368 126.818791 
L 676.106976 121.262115 
L 678.999009 114.511311 
L 682.652103 105.389675 
L 696.351207 70.548224 
L 699.24324 64.120922 
L 701.830848 58.91379 
L 704.114032 54.816869 
L 706.245004 51.461527 
L 708.071551 48.973516 
L 709.898098 46.863801 
L 711.572433 45.275531 
L 713.094555 44.126748 
L 714.616678 43.264434 
L 715.986588 42.736171 
L 717.356499 42.444072 
L 718.726409 42.388296 
L 720.096319 42.567871 
L 721.46623 42.980708 
L 722.83614 43.623625 
L 724.358263 44.602627 
L 725.880385 45.853104 
L 727.55472 47.53162 
L 729.381267 49.708997 
L 731.360027 52.452372 
L 733.490998 55.821098 
L 735.774182 59.862005 
L 738.361791 64.913772 
L 741.406036 71.387417 
L 745.05913 79.715002 
L 750.995408 93.902556 
L 757.083899 108.281816 
L 760.736993 116.367517 
L 763.781238 122.60751 
L 766.521059 127.745152 
L 769.108667 132.122154 
L 771.391851 135.56531 
L 773.522823 138.402679 
L 775.501582 140.699025 
L 777.480342 142.661137 
L 779.306889 144.171379 
L 781.133436 145.391172 
L 782.807771 146.254764 
L 784.482106 146.877035 
L 786.15644 147.261526 
L 787.830775 147.4131 
L 789.50511 147.337854 
L 791.179445 147.043018 
L 793.005992 146.480668 
L 794.832539 145.6788 
L 796.811299 144.555041 
L 798.94227 143.068272 
L 801.225454 141.183453 
L 803.66085 138.87395 
L 806.400671 135.953508 
L 809.444916 132.373173 
L 813.098011 127.713423 
L 817.816591 121.301775 
L 833.342241 99.9009 
L 837.451972 94.758772 
L 841.105066 90.527977 
L 844.453736 86.978189 
L 847.650194 83.91715 
L 850.542227 81.447582 
L 853.282047 79.389571 
L 855.869656 77.712366 
L 858.305052 76.382425 
L 860.740448 75.304626 
L 863.023632 74.532649 
L 865.306816 74.000203 
L 867.437788 73.726705 
L 869.568759 73.675594 
L 871.699731 73.852981 
L 873.830703 74.264488 
L 875.961674 74.915111 
L 878.092646 75.809064 
L 880.223617 76.949619 
L 882.354589 78.338926 
L 884.637773 80.10445 
L 886.920957 82.155657 
L 889.356353 84.65505 
L 891.791749 87.469317 
L 894.379358 90.79312 
L 897.119178 94.668839 
L 900.163424 99.37411 
L 903.512093 104.983034 
L 907.3174 111.817106 
L 912.03598 120.783787 
L 926.039508 147.726755 
L 929.54039 153.796229 
L 932.584635 158.628799 
L 933.954545 160.643093 
L 933.954545 160.643093 
" style="fill:none;stroke:#9467bd;stroke-linecap:square;stroke-width:2.5;"/>
   </g>
   <g id="line2d_15">
    <path clip-path="url(#p4e029115fd)" d="M 173.045455 165.745582 
L 175.480851 170.393932 
L 177.611822 173.996431 
L 179.590582 176.918108 
L 181.417129 179.22911 
L 183.091464 181.005859 
L 184.613586 182.326987 
L 186.135709 183.360222 
L 187.505619 184.038975 
L 188.87553 184.476302 
L 190.24544 184.669888 
L 191.61535 184.618449 
L 192.985261 184.321741 
L 194.355171 183.780562 
L 195.725081 182.996751 
L 197.247204 181.844806 
L 198.769327 180.402293 
L 200.443661 178.488242 
L 202.117996 176.24232 
L 203.944543 173.429507 
L 205.923303 169.977961 
L 208.054274 165.823244 
L 210.489671 160.570363 
L 213.229491 154.097923 
L 216.425949 145.927907 
L 220.383468 135.143928 
L 228.450717 112.279203 
L 233.169297 99.313648 
L 236.670179 90.301035 
L 239.714425 83.05544 
L 242.454245 77.099883 
L 244.889642 72.310946 
L 247.172825 68.286717 
L 249.303797 64.95731 
L 251.282557 62.245453 
L 253.261316 59.904647 
L 255.087863 58.074032 
L 256.91441 56.557766 
L 258.588745 55.439269 
L 260.26308 54.573758 
L 261.937415 53.952767 
L 263.61175 53.56595 
L 265.286084 53.401193 
L 267.112632 53.458527 
L 268.939179 53.743899 
L 270.917938 54.285176 
L 273.04891 55.104794 
L 275.484306 56.292641 
L 278.376339 57.969534 
L 282.333858 60.549513 
L 289.640046 65.346426 
L 292.684291 67.061603 
L 295.2719 68.282196 
L 297.707296 69.187703 
L 299.99048 69.794575 
L 302.121452 70.132909 
L 304.252423 70.241127 
L 306.383395 70.114971 
L 308.514367 69.755576 
L 310.645338 69.16946 
L 312.928522 68.303397 
L 315.363918 67.131518 
L 318.103739 65.548276 
L 321.300196 63.423455 
L 325.866564 60.084923 
L 331.802842 55.782822 
L 334.847088 53.859862 
L 337.282484 52.570742 
L 339.413455 51.676547 
L 341.392215 51.076968 
L 343.218762 50.746263 
L 345.045309 50.6507 
L 346.719644 50.785594 
L 348.393979 51.146336 
L 350.068314 51.743728 
L 351.742649 52.586632 
L 353.416983 53.681858 
L 355.091318 55.034062 
L 356.917865 56.805061 
L 358.744413 58.884763 
L 360.723172 61.482275 
L 362.854144 64.670542 
L 365.137327 68.51786 
L 367.572724 73.082424 
L 370.160332 78.405667 
L 373.204577 85.207922 
L 376.705459 93.600351 
L 381.728464 106.293825 
L 389.491289 125.920871 
L 392.992171 134.157703 
L 395.884204 140.430359 
L 398.471813 145.527044 
L 400.754996 149.553901 
L 402.885968 152.870487 
L 404.864727 155.538391 
L 406.691275 157.629435 
L 408.365609 159.220553 
L 409.887732 160.389633 
L 411.409855 161.290156 
L 412.931977 161.919734 
L 414.301888 162.254189 
L 415.671798 162.369554 
L 417.041708 162.267888 
L 418.411619 161.952447 
L 419.933741 161.356665 
L 421.455864 160.510219 
L 423.130199 159.300955 
L 424.804534 157.814766 
L 426.631081 155.897881 
L 428.60984 153.501759 
L 430.893024 150.369866 
L 433.480632 146.418294 
L 436.524878 141.347887 
L 440.939033 133.514149 
L 447.788585 121.367488 
L 450.985042 116.174003 
L 453.572651 112.369564 
L 455.855835 109.384919 
L 457.986806 106.962882 
L 459.965566 105.061636 
L 461.792113 103.626327 
L 463.466448 102.594532 
L 464.98857 101.900746 
L 466.510693 101.445184 
L 468.032816 101.231403 
L 469.554938 101.261078 
L 471.077061 101.533991 
L 472.599183 102.04803 
L 474.121306 102.799209 
L 475.795641 103.892391 
L 477.469976 105.255148 
L 479.296523 107.03412 
L 481.275282 109.282944 
L 483.406254 112.045569 
L 485.84165 115.58247 
L 488.581471 119.960647 
L 492.082353 125.998766 
L 504.107121 147.143806 
L 506.846942 151.307508 
L 509.282338 154.601818 
L 511.41331 157.113094 
L 513.392069 159.096719 
L 515.218616 160.604416 
L 516.892951 161.696738 
L 518.415074 162.438479 
L 519.937197 162.933168 
L 521.307107 163.162437 
L 522.677017 163.184106 
L 524.046928 162.996511 
L 525.416838 162.5992 
L 526.938961 161.912755 
L 528.461083 160.971179 
L 529.983206 159.779091 
L 531.657541 158.186137 
L 533.484088 156.124427 
L 535.462847 153.529307 
L 537.593819 150.343762 
L 539.877003 146.523685 
L 542.464611 141.751623 
L 545.508856 135.648647 
L 549.466375 127.166808 
L 560.730082 102.673744 
L 563.92654 96.437188 
L 566.666361 91.581794 
L 569.101757 87.719796 
L 571.232728 84.733216 
L 573.211488 82.314129 
L 575.038035 80.399819 
L 576.864582 78.802333 
L 578.538917 77.622384 
L 580.213252 76.717487 
L 581.735374 76.13391 
L 583.257497 75.776537 
L 584.77962 75.642261 
L 586.301742 75.726371 
L 587.823865 76.022605 
L 589.4982 76.584174 
L 591.172535 77.380724 
L 592.999082 78.500941 
L 594.977841 79.986745 
L 597.108813 81.870425 
L 599.544209 84.332734 
L 602.436242 87.599617 
L 606.089336 92.088645 
L 616.591982 105.20867 
L 619.636227 108.534462 
L 622.223836 111.039809 
L 624.50702 112.960408 
L 626.637991 114.48068 
L 628.616751 115.640508 
L 630.59551 116.547069 
L 632.422057 117.153606 
L 634.248604 117.537157 
L 636.075151 117.69894 
L 637.901699 117.643131 
L 639.728246 117.376787 
L 641.707005 116.862117 
L 643.837977 116.062822 
L 646.121161 114.95148 
L 648.556557 113.513954 
L 651.44859 111.534269 
L 655.101684 108.743216 
L 664.995481 101.031988 
L 667.887514 99.142436 
L 670.32291 97.800672 
L 672.606094 96.792719 
L 674.737066 96.099236 
L 676.715825 95.688666 
L 678.542372 95.521615 
L 680.368919 95.56656 
L 682.195466 95.829054 
L 684.022013 96.311889 
L 685.848561 97.015057 
L 687.82732 98.022138 
L 689.806079 99.277229 
L 691.937051 100.8936 
L 694.220235 102.909631 
L 696.655631 105.352886 
L 699.395452 108.412614 
L 702.744122 112.50379 
L 707.462702 118.668445 
L 714.76889 128.218451 
L 718.11756 132.219682 
L 720.857381 135.17256 
L 723.292777 137.492925 
L 725.575961 139.367335 
L 727.706932 140.826125 
L 729.685692 141.910847 
L 731.512239 142.669859 
L 733.338786 143.188561 
L 735.165333 143.462184 
L 736.839668 143.495939 
L 738.514003 143.322529 
L 740.34055 142.900009 
L 742.167097 142.239678 
L 743.993644 141.349972 
L 745.972404 140.140079 
L 748.103375 138.570267 
L 750.386559 136.609574 
L 752.974168 134.083555 
L 756.018413 130.775708 
L 759.823719 126.284176 
L 771.239639 112.563778 
L 774.283884 109.370164 
L 776.871492 106.953996 
L 779.306889 104.976075 
L 781.590073 103.412372 
L 783.721044 102.225598 
L 785.699804 101.370234 
L 787.678563 100.758378 
L 789.657322 100.392037 
L 791.636082 100.269414 
L 793.614841 100.384926 
L 795.593601 100.729282 
L 797.724572 101.341207 
L 799.855544 102.183062 
L 802.29094 103.394811 
L 805.030761 105.024402 
L 808.37943 107.299973 
L 814.315709 111.677102 
L 818.577652 114.68817 
L 821.621897 116.569239 
L 824.057293 117.827224 
L 826.340477 118.756866 
L 828.319237 119.336233 
L 830.297996 119.68174 
L 832.124543 119.776195 
L 833.95109 119.641869 
L 835.777637 119.268411 
L 837.604184 118.648135 
L 839.430732 117.77613 
L 841.257279 116.650331 
L 843.083826 115.271571 
L 845.062585 113.496856 
L 847.193557 111.268478 
L 849.476741 108.533613 
L 851.912137 105.248988 
L 854.499745 101.386466 
L 857.543991 96.425719 
L 861.197085 90.020962 
L 867.133363 79.074286 
L 872.917429 68.568359 
L 876.418311 62.670084 
L 879.310344 58.224264 
L 881.897952 54.657451 
L 884.181136 51.882777 
L 886.312108 49.641085 
L 888.290867 47.882075 
L 890.117414 46.547916 
L 891.791749 45.577331 
L 893.466084 44.853318 
L 895.140419 44.378723 
L 896.662542 44.164344 
L 898.184664 44.155698 
L 899.858999 44.380821 
L 901.533334 44.846572 
L 903.207669 45.545598 
L 905.034216 46.563189 
L 906.860763 47.832527 
L 908.839522 49.471669 
L 911.122706 51.672072 
L 913.558103 54.337353 
L 916.450135 57.850178 
L 920.10323 62.670476 
L 931.975786 78.652278 
L 933.954545 80.997081 
L 933.954545 80.997081 
" style="fill:none;stroke:#8c564b;stroke-linecap:square;stroke-width:2.5;"/>
   </g>
   <g id="line2d_16">
    <path clip-path="url(#p4e029115fd)" d="M 173.045455 122.5311 
L 176.698549 119.133167 
L 182.025978 113.837042 
L 189.941015 105.990932 
L 193.898534 102.401137 
L 197.247204 99.661301 
L 200.291449 97.45793 
L 203.03127 95.735228 
L 205.771091 94.273851 
L 208.358699 93.139268 
L 210.946307 92.242231 
L 213.533916 91.575733 
L 216.273737 91.107315 
L 219.013557 90.862335 
L 222.057802 90.820005 
L 225.406472 91.003616 
L 229.516203 91.468016 
L 236.670179 92.556589 
L 242.606458 93.355513 
L 246.716189 93.688988 
L 250.521495 93.77282 
L 254.174589 93.62605 
L 257.827684 93.256779 
L 261.785202 92.631451 
L 266.655995 91.621957 
L 278.376339 89.079053 
L 281.877221 88.607723 
L 284.921466 88.419182 
L 287.661287 88.467769 
L 290.248895 88.732876 
L 292.684291 89.197331 
L 295.119688 89.885283 
L 297.555084 90.807247 
L 299.99048 91.969159 
L 302.425876 93.372091 
L 305.013485 95.122263 
L 307.753305 97.254574 
L 310.645338 99.793834 
L 313.841796 102.904274 
L 317.49489 106.775867 
L 322.365682 112.28423 
L 331.955055 123.196988 
L 335.608149 126.974672 
L 338.652394 129.814765 
L 341.392215 132.072087 
L 343.827611 133.804936 
L 346.110795 135.171859 
L 348.241767 136.207264 
L 350.372738 136.999666 
L 352.351498 137.51147 
L 354.330257 137.804284 
L 356.309016 137.87758 
L 358.287776 137.733491 
L 360.266535 137.376789 
L 362.397507 136.763385 
L 364.528478 135.924447 
L 366.811662 134.793166 
L 369.399271 133.249093 
L 372.139091 131.352736 
L 375.335549 128.869359 
L 379.597492 125.256661 
L 389.491289 116.761166 
L 392.839959 114.233838 
L 395.731992 112.321793 
L 398.3196 110.86912 
L 400.754996 109.753559 
L 403.03818 108.947779 
L 405.321364 108.386565 
L 407.452336 108.089815 
L 409.583308 108.01441 
L 411.714279 108.158638 
L 413.845251 108.517103 
L 416.128435 109.12862 
L 418.563831 110.023073 
L 421.151439 111.220818 
L 424.043472 112.818635 
L 427.392142 114.937707 
L 431.95851 118.118537 
L 440.177972 123.871348 
L 443.526642 125.923381 
L 446.418675 127.443781 
L 449.006283 128.558982 
L 451.441679 129.366291 
L 453.724863 129.889699 
L 455.855835 130.162114 
L 457.986806 130.21844 
L 460.117778 130.055227 
L 462.24875 129.672862 
L 464.531934 129.024885 
L 466.815118 128.140306 
L 469.250514 126.95286 
L 471.838122 125.441676 
L 474.730155 123.491502 
L 478.231037 120.8437 
L 483.254042 116.724664 
L 489.951381 111.262899 
L 493.452263 108.708181 
L 496.344296 106.874109 
L 498.931905 105.501556 
L 501.215088 104.534358 
L 503.34606 103.8593 
L 505.477032 103.419524 
L 507.455791 103.231716 
L 509.434551 103.262367 
L 511.41331 103.514184 
L 513.392069 103.986632 
L 515.523041 104.737702 
L 517.654013 105.731117 
L 519.937197 107.049099 
L 522.372593 108.719815 
L 525.112413 110.885355 
L 528.308871 113.720732 
L 532.418602 117.690961 
L 541.094701 126.15709 
L 544.138946 128.773977 
L 546.726554 130.713074 
L 549.009738 132.150204 
L 551.14071 133.220723 
L 553.119469 133.952308 
L 554.946016 134.383006 
L 556.620351 134.557551 
L 558.294686 134.510483 
L 559.969021 134.232891 
L 561.643356 133.717618 
L 563.317691 132.959349 
L 564.992026 131.954677 
L 566.666361 130.702148 
L 568.492908 129.053761 
L 570.319455 127.114512 
L 572.298214 124.692765 
L 574.429186 121.724743 
L 576.71237 118.15228 
L 579.147766 113.927681 
L 581.887587 108.718571 
L 585.084044 102.126262 
L 588.889351 93.734395 
L 595.282266 78.984826 
L 600.914119 66.211734 
L 604.415001 58.795826 
L 607.307034 53.152198 
L 609.894643 48.567234 
L 612.177826 44.944141 
L 614.308798 41.959411 
L 616.287558 39.558223 
L 618.114105 37.676855 
L 619.78844 36.24699 
L 621.462774 35.107889 
L 622.984897 34.330246 
L 624.50702 33.80191 
L 626.029142 33.525039 
L 627.399053 33.491529 
L 628.768963 33.661972 
L 630.291085 34.088979 
L 631.813208 34.763167 
L 633.335331 35.680206 
L 635.009666 36.962723 
L 636.684 38.52313 
L 638.510548 40.52952 
L 640.489307 43.042772 
L 642.620279 46.118076 
L 644.903463 49.801048 
L 647.491071 54.405788 
L 650.383104 60.011829 
L 653.883986 67.305061 
L 658.602566 77.697442 
L 669.105212 100.982076 
L 672.910518 108.787989 
L 676.106976 114.87032 
L 678.999009 119.92714 
L 681.73883 124.282582 
L 684.326438 127.980459 
L 686.761834 131.077466 
L 689.045018 133.637319 
L 691.328202 135.864321 
L 693.459174 137.646326 
L 695.590145 139.149068 
L 697.721117 140.3825 
L 699.852089 141.359301 
L 701.98306 142.09456 
L 704.114032 142.605431 
L 706.397216 142.925244 
L 708.832612 143.034394 
L 711.42022 142.922755 
L 714.312253 142.567603 
L 717.660923 141.921908 
L 721.922866 140.859751 
L 736.687456 136.984085 
L 741.101611 136.171784 
L 745.363555 135.61726 
L 749.77771 135.270363 
L 754.800715 135.10506 
L 762.56354 135.109533 
L 770.478578 135.043577 
L 775.34937 134.78145 
L 779.763525 134.321601 
L 784.025469 133.647315 
L 788.287412 132.741097 
L 792.701568 131.57497 
L 797.876784 129.966493 
L 805.182973 127.432116 
L 814.924558 124.085655 
L 820.251987 122.50402 
L 824.970567 121.333625 
L 829.536935 120.426565 
L 834.407727 119.68776 
L 840.344005 119.024904 
L 852.368774 117.741936 
L 856.478505 117.040147 
L 860.131599 116.189841 
L 863.480269 115.175401 
L 866.524514 114.027848 
L 869.568759 112.644753 
L 872.613004 111.012711 
L 875.65725 109.125915 
L 878.853707 106.873383 
L 882.202377 104.229684 
L 885.855471 101.046691 
L 889.965202 97.157728 
L 895.444844 91.635221 
L 905.490853 81.463243 
L 909.448371 77.818178 
L 912.644829 75.1642 
L 915.536862 73.045729 
L 918.12447 71.415593 
L 920.559867 70.136566 
L 922.84305 69.180647 
L 924.974022 68.513278 
L 927.104994 68.072056 
L 929.235965 67.863372 
L 931.366937 67.891061 
L 933.497909 68.15633 
L 933.954545 68.243994 
L 933.954545 68.243994 
" style="fill:none;stroke:#e377c2;stroke-linecap:square;stroke-width:2.5;"/>
   </g>
   <g id="line2d_17">
    <path clip-path="url(#p4e029115fd)" d="M 173.045455 60.868179 
L 175.176426 58.261173 
L 177.155186 56.185321 
L 178.981733 54.587705 
L 180.656068 53.408023 
L 182.17819 52.582536 
L 183.700313 52.000164 
L 185.222435 51.667122 
L 186.592346 51.584526 
L 187.962256 51.710209 
L 189.332166 52.045636 
L 190.854289 52.664884 
L 192.376412 53.542888 
L 193.898534 54.677406 
L 195.572869 56.217183 
L 197.247204 58.055903 
L 199.073751 60.392155 
L 201.052511 63.295927 
L 203.183482 66.832467 
L 205.466666 71.058001 
L 208.054274 76.33872 
L 210.946307 82.775409 
L 214.294977 90.796668 
L 218.55692 101.617223 
L 231.647175 135.287377 
L 235.148057 143.465506 
L 238.192302 150.031195 
L 240.932123 155.428713 
L 243.519731 160.031093 
L 245.802915 163.662977 
L 248.086099 166.872817 
L 250.217071 169.47606 
L 252.19583 171.547911 
L 254.022377 173.163095 
L 255.848924 174.493289 
L 257.675471 175.540923 
L 259.349806 176.256676 
L 261.024141 176.743208 
L 262.698476 177.006278 
L 264.372811 177.052703 
L 266.047146 176.890252 
L 267.873693 176.484959 
L 269.70024 175.853553 
L 271.678999 174.929554 
L 273.809971 173.675052 
L 276.093155 172.057823 
L 278.528551 170.05328 
L 281.268372 167.496704 
L 284.312617 164.340708 
L 287.813499 160.385218 
L 292.227655 155.043373 
L 299.077206 146.347905 
L 308.971003 133.829565 
L 314.450645 127.266987 
L 319.169225 121.948369 
L 323.58338 117.303597 
L 327.693111 113.302028 
L 331.498418 109.902641 
L 334.9993 107.058807 
L 338.34797 104.61525 
L 341.544427 102.556326 
L 344.588672 100.86376 
L 347.480705 99.516211 
L 350.220526 98.489073 
L 352.808134 97.754581 
L 355.243531 97.282238 
L 357.678927 97.030315 
L 360.114323 97.005301 
L 362.549719 97.211832 
L 364.985115 97.652292 
L 367.420511 98.326422 
L 369.855908 99.230956 
L 372.443516 100.437047 
L 375.183337 101.975631 
L 378.07537 103.869019 
L 381.271827 106.245473 
L 384.924921 109.258057 
L 389.643501 113.460148 
L 398.776237 121.650478 
L 402.124907 124.326625 
L 405.01694 126.355574 
L 407.452336 127.804459 
L 409.73552 128.907372 
L 411.866491 129.684269 
L 413.845251 130.16533 
L 415.671798 130.388014 
L 417.498345 130.385212 
L 419.324892 130.145947 
L 420.999227 129.711001 
L 422.825774 128.994424 
L 424.652321 128.02001 
L 426.478869 126.784495 
L 428.305416 125.286863 
L 430.284175 123.370203 
L 432.415147 120.969405 
L 434.546118 118.229539 
L 436.829302 114.934506 
L 439.264698 111.036219 
L 442.004519 106.221297 
L 445.048764 100.410527 
L 448.701859 92.932485 
L 453.877075 81.760924 
L 461.792113 64.673836 
L 465.445207 57.345261 
L 468.489452 51.73713 
L 471.077061 47.423507 
L 473.360245 44.020589 
L 475.491216 41.223983 
L 477.469976 38.981822 
L 479.296523 37.233482 
L 480.970858 35.91371 
L 482.645193 34.873179 
L 484.167315 34.174997 
L 485.689438 33.716306 
L 487.21156 33.499094 
L 488.733683 33.523936 
L 490.255806 33.789991 
L 491.777928 34.295002 
L 493.300051 35.035316 
L 494.974386 36.115394 
L 496.648721 37.465514 
L 498.475268 39.234028 
L 500.454027 41.479887 
L 502.584999 44.255872 
L 504.868183 47.604378 
L 507.455791 51.810996 
L 510.347824 56.944255 
L 514.000918 63.9162 
L 519.632772 75.230858 
L 526.025687 87.960242 
L 529.678781 94.757532 
L 532.723026 99.987146 
L 535.462847 104.277702 
L 538.050456 107.919644 
L 540.485852 110.953283 
L 542.769036 113.43329 
L 544.900007 115.422456 
L 546.878767 116.986679 
L 548.857526 118.281264 
L 550.836285 119.312615 
L 552.815045 120.090653 
L 554.793804 120.628626 
L 556.772564 120.942876 
L 558.903535 121.053134 
L 561.186719 120.938972 
L 563.622115 120.593302 
L 566.514148 119.948836 
L 570.319455 118.853245 
L 578.386705 116.465707 
L 581.43095 115.836453 
L 584.018558 115.521795 
L 586.453954 115.452215 
L 588.737138 115.613786 
L 590.86811 115.979945 
L 592.999082 116.565332 
L 595.130053 117.376339 
L 597.261025 118.414682 
L 599.544209 119.775964 
L 601.979605 121.500812 
L 604.567213 123.620746 
L 607.307034 126.152745 
L 610.503492 129.415966 
L 614.613223 133.954861 
L 625.115869 145.723923 
L 628.160114 148.725853 
L 630.747722 150.988394 
L 633.030906 152.715084 
L 635.161878 154.065366 
L 637.140637 155.070113 
L 638.967184 155.768775 
L 640.793731 156.235682 
L 642.620279 156.461439 
L 644.294613 156.450577 
L 645.968948 156.227789 
L 647.643283 155.791489 
L 649.46983 155.072419 
L 651.296377 154.102608 
L 653.122925 152.887683 
L 655.101684 151.304532 
L 657.232656 149.304706 
L 659.51584 146.846809 
L 661.951236 143.900935 
L 664.691056 140.242001 
L 668.039726 135.376757 
L 672.606094 128.297431 
L 681.282193 114.772392 
L 684.630863 109.993323 
L 687.522895 106.236864 
L 690.110504 103.236118 
L 692.393688 100.911564 
L 694.524659 99.04087 
L 696.503419 97.578121 
L 698.482178 96.390285 
L 700.308725 95.543698 
L 702.135273 94.93954 
L 703.96182 94.577462 
L 705.788367 94.454351 
L 707.614914 94.564371 
L 709.441461 94.899034 
L 711.42022 95.502228 
L 713.39898 96.338841 
L 715.529951 97.477482 
L 717.965348 99.043993 
L 720.705168 101.086053 
L 724.053838 103.87636 
L 730.446753 109.581269 
L 734.708696 113.221601 
L 737.752941 115.538564 
L 740.34055 117.234571 
L 742.623734 118.474864 
L 744.754705 119.384885 
L 746.733465 119.995251 
L 748.712224 120.364305 
L 750.538771 120.48087 
L 752.365319 120.375881 
L 754.191866 120.0459 
L 756.018413 119.490291 
L 757.84496 118.711238 
L 759.823719 117.620973 
L 761.954691 116.171737 
L 764.085663 114.454156 
L 766.521059 112.191043 
L 769.108667 109.478776 
L 772.152912 105.957257 
L 776.110431 101.010778 
L 786.15644 88.283107 
L 789.200686 84.881706 
L 791.788294 82.321556 
L 794.071478 80.372656 
L 796.20245 78.854935 
L 798.028997 77.809379 
L 799.855544 77.017389 
L 801.529879 76.526519 
L 803.204214 76.270099 
L 804.878548 76.255462 
L 806.400671 76.456514 
L 807.922794 76.864413 
L 809.597129 77.553352 
L 811.271463 78.493507 
L 812.945798 79.682342 
L 814.772345 81.257396 
L 816.751105 83.281206 
L 818.729864 85.620655 
L 820.860836 88.471643 
L 823.296232 92.115838 
L 826.036053 96.649195 
L 829.080298 102.131567 
L 832.885604 109.46348 
L 846.432496 136.021118 
L 849.476741 141.241136 
L 852.064349 145.247708 
L 854.347533 148.396311 
L 856.478505 150.969265 
L 858.457264 153.015443 
L 860.283811 154.592772 
L 861.958146 155.764026 
L 863.632481 156.663779 
L 865.154604 157.240515 
L 866.676726 157.58374 
L 868.198849 157.691144 
L 869.720971 157.561727 
L 871.243094 157.195795 
L 872.765217 156.594943 
L 874.287339 155.762031 
L 875.961674 154.582718 
L 877.636009 153.134702 
L 879.462556 151.258957 
L 881.441316 148.893632 
L 883.572287 145.981211 
L 885.855471 142.472144 
L 888.44308 138.057442 
L 891.335112 132.646615 
L 894.683782 125.871719 
L 898.793513 117.025422 
L 913.862527 84.062409 
L 917.363409 77.225929 
L 920.407654 71.764349 
L 923.147475 67.29335 
L 925.735083 63.496171 
L 928.17048 60.325448 
L 930.453663 57.724159 
L 932.584635 55.630036 
L 933.954545 54.456745 
L 933.954545 54.456745 
" style="fill:none;stroke:#7f7f7f;stroke-linecap:square;stroke-width:2.5;"/>
   </g>
   <g id="patch_3">
    <path d="M 135 192.24 
L 135 25.92 
" style="fill:none;stroke:#000000;stroke-linecap:square;stroke-linejoin:miter;stroke-width:1.5;"/>
   </g>
   <g id="patch_4">
    <path d="M 972 192.24 
L 972 25.92 
" style="fill:none;stroke:#000000;stroke-linecap:square;stroke-linejoin:miter;stroke-width:1.5;"/>
   </g>
   <g id="patch_5">
    <path d="M 135 192.24 
L 972 192.24 
" style="fill:none;stroke:#000000;stroke-linecap:square;stroke-linejoin:miter;stroke-width:1.5;"/>
   </g>
   <g id="patch_6">
    <path d="M 135 25.92 
L 972 25.92 
" style="fill:none;stroke:#000000;stroke-linecap:square;stroke-linejoin:miter;stroke-width:1.5;"/>
   </g>
   <g id="text_12">
    <!-- Training reference -->
    <g transform="translate(445.055625 19.92)scale(0.24 -0.24)">
     <defs>
      <path d="M 41.109375 46.296875 
Q 39.59375 47.171875 37.8125 47.578125 
Q 36.03125 48 33.890625 48 
Q 26.265625 48 22.1875 43.046875 
Q 18.109375 38.09375 18.109375 28.8125 
L 18.109375 0 
L 9.078125 0 
L 9.078125 54.6875 
L 18.109375 54.6875 
L 18.109375 46.1875 
Q 20.953125 51.171875 25.484375 53.578125 
Q 30.03125 56 36.53125 56 
Q 37.453125 56 38.578125 55.875 
Q 39.703125 55.765625 41.0625 55.515625 
z
" id="DejaVuSans-114"/>
      <path d="M 34.28125 27.484375 
Q 23.390625 27.484375 19.1875 25 
Q 14.984375 22.515625 14.984375 16.5 
Q 14.984375 11.71875 18.140625 8.90625 
Q 21.296875 6.109375 26.703125 6.109375 
Q 34.1875 6.109375 38.703125 11.40625 
Q 43.21875 16.703125 43.21875 25.484375 
L 43.21875 27.484375 
z
M 52.203125 31.203125 
L 52.203125 0 
L 43.21875 0 
L 43.21875 8.296875 
Q 40.140625 3.328125 35.546875 0.953125 
Q 30.953125 -1.421875 24.3125 -1.421875 
Q 15.921875 -1.421875 10.953125 3.296875 
Q 6 8.015625 6 15.921875 
Q 6 25.140625 12.171875 29.828125 
Q 18.359375 34.515625 30.609375 34.515625 
L 43.21875 34.515625 
L 43.21875 35.40625 
Q 43.21875 41.609375 39.140625 45 
Q 35.0625 48.390625 27.6875 48.390625 
Q 23 48.390625 18.546875 47.265625 
Q 14.109375 46.140625 10.015625 43.890625 
L 10.015625 52.203125 
Q 14.9375 54.109375 19.578125 55.046875 
Q 24.21875 56 28.609375 56 
Q 40.484375 56 46.34375 49.84375 
Q 52.203125 43.703125 52.203125 31.203125 
z
" id="DejaVuSans-97"/>
      <path d="M 54.890625 33.015625 
L 54.890625 0 
L 45.90625 0 
L 45.90625 32.71875 
Q 45.90625 40.484375 42.875 44.328125 
Q 39.84375 48.1875 33.796875 48.1875 
Q 26.515625 48.1875 22.3125 43.546875 
Q 18.109375 38.921875 18.109375 30.90625 
L 18.109375 0 
L 9.078125 0 
L 9.078125 54.6875 
L 18.109375 54.6875 
L 18.109375 46.1875 
Q 21.34375 51.125 25.703125 53.5625 
Q 30.078125 56 35.796875 56 
Q 45.21875 56 50.046875 50.171875 
Q 54.890625 44.34375 54.890625 33.015625 
z
" id="DejaVuSans-110"/>
      <path d="M 37.109375 75.984375 
L 37.109375 68.5 
L 28.515625 68.5 
Q 23.6875 68.5 21.796875 66.546875 
Q 19.921875 64.59375 19.921875 59.515625 
L 19.921875 54.6875 
L 34.71875 54.6875 
L 34.71875 47.703125 
L 19.921875 47.703125 
L 19.921875 0 
L 10.890625 0 
L 10.890625 47.703125 
L 2.296875 47.703125 
L 2.296875 54.6875 
L 10.890625 54.6875 
L 10.890625 58.5 
Q 10.890625 67.625 15.140625 71.796875 
Q 19.390625 75.984375 28.609375 75.984375 
z
" id="DejaVuSans-102"/>
      <path d="M 48.78125 52.59375 
L 48.78125 44.1875 
Q 44.96875 46.296875 41.140625 47.34375 
Q 37.3125 48.390625 33.40625 48.390625 
Q 24.65625 48.390625 19.8125 42.84375 
Q 14.984375 37.3125 14.984375 27.296875 
Q 14.984375 17.28125 19.8125 11.734375 
Q 24.65625 6.203125 33.40625 6.203125 
Q 37.3125 6.203125 41.140625 7.25 
Q 44.96875 8.296875 48.78125 10.40625 
L 48.78125 2.09375 
Q 45.015625 0.34375 40.984375 -0.53125 
Q 36.96875 -1.421875 32.421875 -1.421875 
Q 20.0625 -1.421875 12.78125 6.34375 
Q 5.515625 14.109375 5.515625 27.296875 
Q 5.515625 40.671875 12.859375 48.328125 
Q 20.21875 56 33.015625 56 
Q 37.15625 56 41.109375 55.140625 
Q 45.0625 54.296875 48.78125 52.59375 
z
" id="DejaVuSans-99"/>
     </defs>
     <use xlink:href="#DejaVuSans-84"/>
     <use x="46.333984" xlink:href="#DejaVuSans-114"/>
     <use x="87.447266" xlink:href="#DejaVuSans-97"/>
     <use x="148.726562" xlink:href="#DejaVuSans-105"/>
     <use x="176.509766" xlink:href="#DejaVuSans-110"/>
     <use x="239.888672" xlink:href="#DejaVuSans-105"/>
     <use x="267.671875" xlink:href="#DejaVuSans-110"/>
     <use x="331.050781" xlink:href="#DejaVuSans-103"/>
     <use x="394.527344" xlink:href="#DejaVuSans-32"/>
     <use x="426.314453" xlink:href="#DejaVuSans-114"/>
     <use x="465.177734" xlink:href="#DejaVuSans-101"/>
     <use x="526.701172" xlink:href="#DejaVuSans-102"/>
     <use x="561.90625" xlink:href="#DejaVuSans-101"/>
     <use x="623.429688" xlink:href="#DejaVuSans-114"/>
     <use x="662.292969" xlink:href="#DejaVuSans-101"/>
     <use x="723.816406" xlink:href="#DejaVuSans-110"/>
     <use x="787.195312" xlink:href="#DejaVuSans-99"/>
     <use x="842.175781" xlink:href="#DejaVuSans-101"/>
    </g>
   </g>
  </g>
 </g>
 <defs>
  <clipPath id="p4e029115fd">
   <rect height="166.32" width="837" x="135" y="25.92"/>
  </clipPath>
 </defs>
</svg>
